G04 #@! TF.FileFunction,Legend,Top*
%FSLAX46Y46*%
G04 Gerber Fmt 4.6, Leading zero omitted, Abs format (unit mm)*
G04 Created by KiCad (PCBNEW 4.0.2-stable) date Sunday, 15 May 2016 11:48:40 pm*
%MOMM*%
G01*
G04 APERTURE LIST*
%ADD10C,0.100000*%
%ADD11C,0.300000*%
%ADD12C,0.200000*%
%ADD13C,0.150000*%
%ADD14C,0.203200*%
%ADD15C,0.152400*%
G04 APERTURE END LIST*
D10*
D11*
X90110571Y-121411427D02*
X90110571Y-121268570D01*
X90182000Y-121125713D01*
X90253429Y-121054284D01*
X90396286Y-120982855D01*
X90682000Y-120911427D01*
X91039143Y-120911427D01*
X91324857Y-120982855D01*
X91467714Y-121054284D01*
X91539143Y-121125713D01*
X91610571Y-121268570D01*
X91610571Y-121411427D01*
X91539143Y-121554284D01*
X91467714Y-121625713D01*
X91324857Y-121697141D01*
X91039143Y-121768570D01*
X90682000Y-121768570D01*
X90396286Y-121697141D01*
X90253429Y-121625713D01*
X90182000Y-121554284D01*
X90110571Y-121411427D01*
X90110571Y-119554284D02*
X90110571Y-120268570D01*
X90824857Y-120339999D01*
X90753429Y-120268570D01*
X90682000Y-120125713D01*
X90682000Y-119768570D01*
X90753429Y-119625713D01*
X90824857Y-119554284D01*
X90967714Y-119482856D01*
X91324857Y-119482856D01*
X91467714Y-119554284D01*
X91539143Y-119625713D01*
X91610571Y-119768570D01*
X91610571Y-120125713D01*
X91539143Y-120268570D01*
X91467714Y-120339999D01*
X91039143Y-118839999D02*
X91039143Y-117697142D01*
X90253429Y-117054285D02*
X90182000Y-116982856D01*
X90110571Y-116839999D01*
X90110571Y-116482856D01*
X90182000Y-116339999D01*
X90253429Y-116268570D01*
X90396286Y-116197142D01*
X90539143Y-116197142D01*
X90753429Y-116268570D01*
X91610571Y-117125713D01*
X91610571Y-116197142D01*
X90110571Y-115268571D02*
X90110571Y-115125714D01*
X90182000Y-114982857D01*
X90253429Y-114911428D01*
X90396286Y-114839999D01*
X90682000Y-114768571D01*
X91039143Y-114768571D01*
X91324857Y-114839999D01*
X91467714Y-114911428D01*
X91539143Y-114982857D01*
X91610571Y-115125714D01*
X91610571Y-115268571D01*
X91539143Y-115411428D01*
X91467714Y-115482857D01*
X91324857Y-115554285D01*
X91039143Y-115625714D01*
X90682000Y-115625714D01*
X90396286Y-115554285D01*
X90253429Y-115482857D01*
X90182000Y-115411428D01*
X90110571Y-115268571D01*
X91610571Y-113340000D02*
X91610571Y-114197143D01*
X91610571Y-113768571D02*
X90110571Y-113768571D01*
X90324857Y-113911428D01*
X90467714Y-114054286D01*
X90539143Y-114197143D01*
X90110571Y-112054286D02*
X90110571Y-112340000D01*
X90182000Y-112482857D01*
X90253429Y-112554286D01*
X90467714Y-112697143D01*
X90753429Y-112768572D01*
X91324857Y-112768572D01*
X91467714Y-112697143D01*
X91539143Y-112625715D01*
X91610571Y-112482857D01*
X91610571Y-112197143D01*
X91539143Y-112054286D01*
X91467714Y-111982857D01*
X91324857Y-111911429D01*
X90967714Y-111911429D01*
X90824857Y-111982857D01*
X90753429Y-112054286D01*
X90682000Y-112197143D01*
X90682000Y-112482857D01*
X90753429Y-112625715D01*
X90824857Y-112697143D01*
X90967714Y-112768572D01*
X61410001Y-37856571D02*
X61695715Y-37856571D01*
X61838573Y-37928000D01*
X61981430Y-38070857D01*
X62052858Y-38356571D01*
X62052858Y-38856571D01*
X61981430Y-39142286D01*
X61838573Y-39285143D01*
X61695715Y-39356571D01*
X61410001Y-39356571D01*
X61267144Y-39285143D01*
X61124287Y-39142286D01*
X61052858Y-38856571D01*
X61052858Y-38356571D01*
X61124287Y-38070857D01*
X61267144Y-37928000D01*
X61410001Y-37856571D01*
X62695716Y-38356571D02*
X62695716Y-39856571D01*
X62695716Y-38428000D02*
X62838573Y-38356571D01*
X63124287Y-38356571D01*
X63267144Y-38428000D01*
X63338573Y-38499429D01*
X63410002Y-38642286D01*
X63410002Y-39070857D01*
X63338573Y-39213714D01*
X63267144Y-39285143D01*
X63124287Y-39356571D01*
X62838573Y-39356571D01*
X62695716Y-39285143D01*
X64624287Y-39285143D02*
X64481430Y-39356571D01*
X64195716Y-39356571D01*
X64052859Y-39285143D01*
X63981430Y-39142286D01*
X63981430Y-38570857D01*
X64052859Y-38428000D01*
X64195716Y-38356571D01*
X64481430Y-38356571D01*
X64624287Y-38428000D01*
X64695716Y-38570857D01*
X64695716Y-38713714D01*
X63981430Y-38856571D01*
X65338573Y-38356571D02*
X65338573Y-39356571D01*
X65338573Y-38499429D02*
X65410001Y-38428000D01*
X65552859Y-38356571D01*
X65767144Y-38356571D01*
X65910001Y-38428000D01*
X65981430Y-38570857D01*
X65981430Y-39356571D01*
X67195716Y-38570857D02*
X66695716Y-38570857D01*
X66695716Y-39356571D02*
X66695716Y-37856571D01*
X67410002Y-37856571D01*
X68552858Y-39285143D02*
X68410001Y-39356571D01*
X68124287Y-39356571D01*
X67981430Y-39285143D01*
X67910001Y-39142286D01*
X67910001Y-38570857D01*
X67981430Y-38428000D01*
X68124287Y-38356571D01*
X68410001Y-38356571D01*
X68552858Y-38428000D01*
X68624287Y-38570857D01*
X68624287Y-38713714D01*
X67910001Y-38856571D01*
X69267144Y-38356571D02*
X69267144Y-39356571D01*
X69267144Y-38499429D02*
X69338572Y-38428000D01*
X69481430Y-38356571D01*
X69695715Y-38356571D01*
X69838572Y-38428000D01*
X69910001Y-38570857D01*
X69910001Y-39356571D01*
X71267144Y-39285143D02*
X71124287Y-39356571D01*
X70838573Y-39356571D01*
X70695715Y-39285143D01*
X70624287Y-39213714D01*
X70552858Y-39070857D01*
X70552858Y-38642286D01*
X70624287Y-38499429D01*
X70695715Y-38428000D01*
X70838573Y-38356571D01*
X71124287Y-38356571D01*
X71267144Y-38428000D01*
X72481429Y-39285143D02*
X72338572Y-39356571D01*
X72052858Y-39356571D01*
X71910001Y-39285143D01*
X71838572Y-39142286D01*
X71838572Y-38570857D01*
X71910001Y-38428000D01*
X72052858Y-38356571D01*
X72338572Y-38356571D01*
X72481429Y-38428000D01*
X72552858Y-38570857D01*
X72552858Y-38713714D01*
X71838572Y-38856571D01*
X75195715Y-39213714D02*
X75124286Y-39285143D01*
X74910000Y-39356571D01*
X74767143Y-39356571D01*
X74552858Y-39285143D01*
X74410000Y-39142286D01*
X74338572Y-38999429D01*
X74267143Y-38713714D01*
X74267143Y-38499429D01*
X74338572Y-38213714D01*
X74410000Y-38070857D01*
X74552858Y-37928000D01*
X74767143Y-37856571D01*
X74910000Y-37856571D01*
X75124286Y-37928000D01*
X75195715Y-37999429D01*
X76052858Y-39356571D02*
X75910000Y-39285143D01*
X75838572Y-39213714D01*
X75767143Y-39070857D01*
X75767143Y-38642286D01*
X75838572Y-38499429D01*
X75910000Y-38428000D01*
X76052858Y-38356571D01*
X76267143Y-38356571D01*
X76410000Y-38428000D01*
X76481429Y-38499429D01*
X76552858Y-38642286D01*
X76552858Y-39070857D01*
X76481429Y-39213714D01*
X76410000Y-39285143D01*
X76267143Y-39356571D01*
X76052858Y-39356571D01*
X77410001Y-39356571D02*
X77267143Y-39285143D01*
X77195715Y-39142286D01*
X77195715Y-37856571D01*
X78195715Y-39356571D02*
X78052857Y-39285143D01*
X77981429Y-39142286D01*
X77981429Y-37856571D01*
X79410000Y-39356571D02*
X79410000Y-38570857D01*
X79338571Y-38428000D01*
X79195714Y-38356571D01*
X78910000Y-38356571D01*
X78767143Y-38428000D01*
X79410000Y-39285143D02*
X79267143Y-39356571D01*
X78910000Y-39356571D01*
X78767143Y-39285143D01*
X78695714Y-39142286D01*
X78695714Y-38999429D01*
X78767143Y-38856571D01*
X78910000Y-38785143D01*
X79267143Y-38785143D01*
X79410000Y-38713714D01*
X80124286Y-39356571D02*
X80124286Y-38356571D01*
X80124286Y-38642286D02*
X80195714Y-38499429D01*
X80267143Y-38428000D01*
X80410000Y-38356571D01*
X80552857Y-38356571D01*
X82052857Y-38356571D02*
X82410000Y-39356571D01*
X82767142Y-38356571D01*
X83624285Y-37856571D02*
X83767142Y-37856571D01*
X83909999Y-37928000D01*
X83981428Y-37999429D01*
X84052857Y-38142286D01*
X84124285Y-38428000D01*
X84124285Y-38785143D01*
X84052857Y-39070857D01*
X83981428Y-39213714D01*
X83909999Y-39285143D01*
X83767142Y-39356571D01*
X83624285Y-39356571D01*
X83481428Y-39285143D01*
X83409999Y-39213714D01*
X83338571Y-39070857D01*
X83267142Y-38785143D01*
X83267142Y-38428000D01*
X83338571Y-38142286D01*
X83409999Y-37999429D01*
X83481428Y-37928000D01*
X83624285Y-37856571D01*
X84767142Y-39213714D02*
X84838570Y-39285143D01*
X84767142Y-39356571D01*
X84695713Y-39285143D01*
X84767142Y-39213714D01*
X84767142Y-39356571D01*
X86267142Y-39356571D02*
X85409999Y-39356571D01*
X85838571Y-39356571D02*
X85838571Y-37856571D01*
X85695714Y-38070857D01*
X85552856Y-38213714D01*
X85409999Y-38285143D01*
X63052858Y-40970857D02*
X63552858Y-40970857D01*
X63767144Y-41756571D02*
X63052858Y-41756571D01*
X63052858Y-40256571D01*
X63767144Y-40256571D01*
X64410001Y-40756571D02*
X64410001Y-41756571D01*
X64410001Y-40899429D02*
X64481429Y-40828000D01*
X64624287Y-40756571D01*
X64838572Y-40756571D01*
X64981429Y-40828000D01*
X65052858Y-40970857D01*
X65052858Y-41756571D01*
X66410001Y-40756571D02*
X66410001Y-41970857D01*
X66338572Y-42113714D01*
X66267144Y-42185143D01*
X66124287Y-42256571D01*
X65910001Y-42256571D01*
X65767144Y-42185143D01*
X66410001Y-41685143D02*
X66267144Y-41756571D01*
X65981430Y-41756571D01*
X65838572Y-41685143D01*
X65767144Y-41613714D01*
X65695715Y-41470857D01*
X65695715Y-41042286D01*
X65767144Y-40899429D01*
X65838572Y-40828000D01*
X65981430Y-40756571D01*
X66267144Y-40756571D01*
X66410001Y-40828000D01*
X67124287Y-41756571D02*
X67124287Y-40756571D01*
X67124287Y-40256571D02*
X67052858Y-40328000D01*
X67124287Y-40399429D01*
X67195715Y-40328000D01*
X67124287Y-40256571D01*
X67124287Y-40399429D01*
X67838573Y-40756571D02*
X67838573Y-41756571D01*
X67838573Y-40899429D02*
X67910001Y-40828000D01*
X68052859Y-40756571D01*
X68267144Y-40756571D01*
X68410001Y-40828000D01*
X68481430Y-40970857D01*
X68481430Y-41756571D01*
X69767144Y-41685143D02*
X69624287Y-41756571D01*
X69338573Y-41756571D01*
X69195716Y-41685143D01*
X69124287Y-41542286D01*
X69124287Y-40970857D01*
X69195716Y-40828000D01*
X69338573Y-40756571D01*
X69624287Y-40756571D01*
X69767144Y-40828000D01*
X69838573Y-40970857D01*
X69838573Y-41113714D01*
X69124287Y-41256571D01*
X71052858Y-41685143D02*
X70910001Y-41756571D01*
X70624287Y-41756571D01*
X70481430Y-41685143D01*
X70410001Y-41542286D01*
X70410001Y-40970857D01*
X70481430Y-40828000D01*
X70624287Y-40756571D01*
X70910001Y-40756571D01*
X71052858Y-40828000D01*
X71124287Y-40970857D01*
X71124287Y-41113714D01*
X70410001Y-41256571D01*
X71767144Y-41756571D02*
X71767144Y-40756571D01*
X71767144Y-41042286D02*
X71838572Y-40899429D01*
X71910001Y-40828000D01*
X72052858Y-40756571D01*
X72195715Y-40756571D01*
X72695715Y-41613714D02*
X72767143Y-41685143D01*
X72695715Y-41756571D01*
X72624286Y-41685143D01*
X72695715Y-41613714D01*
X72695715Y-41756571D01*
X72695715Y-40828000D02*
X72767143Y-40899429D01*
X72695715Y-40970857D01*
X72624286Y-40899429D01*
X72695715Y-40828000D01*
X72695715Y-40970857D01*
X74481429Y-41328000D02*
X75195715Y-41328000D01*
X74338572Y-41756571D02*
X74838572Y-40256571D01*
X75338572Y-41756571D01*
X76052858Y-41756571D02*
X75910000Y-41685143D01*
X75838572Y-41542286D01*
X75838572Y-40256571D01*
X77195714Y-41685143D02*
X77052857Y-41756571D01*
X76767143Y-41756571D01*
X76624286Y-41685143D01*
X76552857Y-41542286D01*
X76552857Y-40970857D01*
X76624286Y-40828000D01*
X76767143Y-40756571D01*
X77052857Y-40756571D01*
X77195714Y-40828000D01*
X77267143Y-40970857D01*
X77267143Y-41113714D01*
X76552857Y-41256571D01*
X77767143Y-41756571D02*
X78552857Y-40756571D01*
X77767143Y-40756571D02*
X78552857Y-41756571D01*
X80267143Y-41756571D02*
X80267143Y-40256571D01*
X80767143Y-41328000D01*
X81267143Y-40256571D01*
X81267143Y-41756571D01*
X82624286Y-40756571D02*
X82624286Y-41756571D01*
X81981429Y-40756571D02*
X81981429Y-41542286D01*
X82052857Y-41685143D01*
X82195715Y-41756571D01*
X82410000Y-41756571D01*
X82552857Y-41685143D01*
X82624286Y-41613714D01*
X83338572Y-41756571D02*
X83338572Y-40756571D01*
X83338572Y-40256571D02*
X83267143Y-40328000D01*
X83338572Y-40399429D01*
X83410000Y-40328000D01*
X83338572Y-40256571D01*
X83338572Y-40399429D01*
X84052858Y-41756571D02*
X84052858Y-40756571D01*
X84052858Y-41042286D02*
X84124286Y-40899429D01*
X84195715Y-40828000D01*
X84338572Y-40756571D01*
X84481429Y-40756571D01*
D12*
X90932000Y-97282000D02*
X90932000Y-98298000D01*
X91440000Y-68580000D02*
X90424000Y-68580000D01*
X90932000Y-68072000D02*
X90932000Y-69088000D01*
X91440000Y-97790000D02*
X90424000Y-97790000D01*
X38608000Y-117348000D02*
X37592000Y-117348000D01*
X38100000Y-116840000D02*
X38100000Y-117856000D01*
X37592000Y-105156000D02*
X38608000Y-105156000D01*
X38100000Y-105664000D02*
X38100000Y-105156000D01*
X38100000Y-104648000D02*
X38100000Y-105664000D01*
D13*
X85756000Y-86268000D02*
X86456000Y-86268000D01*
X86456000Y-87468000D02*
X85756000Y-87468000D01*
X72806000Y-83916000D02*
X72806000Y-83216000D01*
X74006000Y-83216000D02*
X74006000Y-83916000D01*
X70266000Y-83916000D02*
X70266000Y-83216000D01*
X71466000Y-83216000D02*
X71466000Y-83916000D01*
X39466000Y-71212000D02*
X38766000Y-71212000D01*
X38766000Y-70012000D02*
X39466000Y-70012000D01*
X43719000Y-70393000D02*
X44419000Y-70393000D01*
X44419000Y-71593000D02*
X43719000Y-71593000D01*
X43719000Y-74076000D02*
X44419000Y-74076000D01*
X44419000Y-75276000D02*
X43719000Y-75276000D01*
X37754000Y-85948000D02*
X37754000Y-85248000D01*
X38954000Y-85248000D02*
X38954000Y-85948000D01*
X70520000Y-60040000D02*
X70520000Y-59340000D01*
X71720000Y-59340000D02*
X71720000Y-60040000D01*
X65497000Y-84105000D02*
X65497000Y-84805000D01*
X64297000Y-84805000D02*
X64297000Y-84105000D01*
X73183000Y-76489000D02*
X73883000Y-76489000D01*
X73883000Y-77689000D02*
X73183000Y-77689000D01*
X68615000Y-60040000D02*
X68615000Y-59340000D01*
X69815000Y-59340000D02*
X69815000Y-60040000D01*
X63973000Y-85375000D02*
X63973000Y-86075000D01*
X62773000Y-86075000D02*
X62773000Y-85375000D01*
X58766000Y-81311000D02*
X58766000Y-82011000D01*
X57566000Y-82011000D02*
X57566000Y-81311000D01*
X64297000Y-69057000D02*
X64297000Y-68357000D01*
X65497000Y-68357000D02*
X65497000Y-69057000D01*
X60798000Y-106584000D02*
X60798000Y-107284000D01*
X59598000Y-107284000D02*
X59598000Y-106584000D01*
X59598000Y-50388000D02*
X59598000Y-49688000D01*
X60798000Y-49688000D02*
X60798000Y-50388000D01*
X63154000Y-50388000D02*
X63154000Y-49688000D01*
X64354000Y-49688000D02*
X64354000Y-50388000D01*
X61376000Y-50388000D02*
X61376000Y-49688000D01*
X62576000Y-49688000D02*
X62576000Y-50388000D01*
X59274000Y-106584000D02*
X59274000Y-107284000D01*
X58074000Y-107284000D02*
X58074000Y-106584000D01*
X71786000Y-120558000D02*
X72486000Y-120558000D01*
X72486000Y-121758000D02*
X71786000Y-121758000D01*
X71786000Y-119034000D02*
X72486000Y-119034000D01*
X72486000Y-120234000D02*
X71786000Y-120234000D01*
X68357000Y-107604000D02*
X69057000Y-107604000D01*
X69057000Y-108804000D02*
X68357000Y-108804000D01*
X71786000Y-117510000D02*
X72486000Y-117510000D01*
X72486000Y-118710000D02*
X71786000Y-118710000D01*
X71786000Y-122082000D02*
X72486000Y-122082000D01*
X72486000Y-123282000D02*
X71786000Y-123282000D01*
X69057000Y-102327000D02*
X68357000Y-102327000D01*
X68357000Y-101127000D02*
X69057000Y-101127000D01*
X71786000Y-124495000D02*
X72486000Y-124495000D01*
X72486000Y-125695000D02*
X71786000Y-125695000D01*
X59532000Y-125695000D02*
X58832000Y-125695000D01*
X58832000Y-124495000D02*
X59532000Y-124495000D01*
X63732000Y-118057000D02*
X67332000Y-118057000D01*
X67332000Y-114607000D02*
X63732000Y-114607000D01*
D14*
X43658000Y-91094000D02*
G75*
G03X43658000Y-91094000I-200000J0D01*
G01*
X44058000Y-90594000D02*
X44058000Y-92794000D01*
X44058000Y-92794000D02*
X45858000Y-92794000D01*
X45858000Y-92794000D02*
X45858000Y-90594000D01*
X45858000Y-90594000D02*
X44058000Y-90594000D01*
D13*
X46504000Y-89342000D02*
X46504000Y-87442000D01*
X42904000Y-89342000D02*
X42904000Y-87442000D01*
X46504000Y-87442000D02*
X42904000Y-87442000D01*
X42904000Y-89342000D02*
X46504000Y-89342000D01*
X75333000Y-76134000D02*
X75333000Y-74234000D01*
X71733000Y-76134000D02*
X71733000Y-74234000D01*
X75333000Y-74234000D02*
X71733000Y-74234000D01*
X71733000Y-76134000D02*
X75333000Y-76134000D01*
X41219000Y-96502000D02*
X36119000Y-96502000D01*
X36119000Y-96502000D02*
X36119000Y-87902000D01*
X36119000Y-87902000D02*
X41219000Y-87902000D01*
X41219000Y-87902000D02*
X41219000Y-96502000D01*
D11*
X41089711Y-90202000D02*
G75*
G03X41089711Y-90202000I-70711J0D01*
G01*
D13*
X70303000Y-91821000D02*
X69928000Y-92196000D01*
X70103000Y-91821000D02*
X69928000Y-91996000D01*
X69928000Y-91821000D02*
X73328000Y-91821000D01*
X69928000Y-98171000D02*
X69928000Y-91821000D01*
X73328000Y-98171000D02*
X69928000Y-98171000D01*
X73328000Y-91821000D02*
X73328000Y-98171000D01*
X68301820Y-96215200D02*
X68301820Y-96916240D01*
X68301820Y-96916240D02*
X68052900Y-96916240D01*
X65502840Y-96916240D02*
X65302180Y-96916240D01*
X65302180Y-96916240D02*
X65302180Y-96215200D01*
X84574000Y-89448000D02*
X83574000Y-89448000D01*
X83574000Y-88098000D02*
X84574000Y-88098000D01*
X86733000Y-85638000D02*
X85733000Y-85638000D01*
X85733000Y-84288000D02*
X86733000Y-84288000D01*
X39870000Y-78145000D02*
X38870000Y-78145000D01*
X38870000Y-76795000D02*
X39870000Y-76795000D01*
X50205000Y-76208000D02*
X50205000Y-77208000D01*
X48855000Y-77208000D02*
X48855000Y-76208000D01*
X51983000Y-77478000D02*
X51983000Y-78478000D01*
X50633000Y-78478000D02*
X50633000Y-77478000D01*
X40807000Y-85098000D02*
X40807000Y-86098000D01*
X39457000Y-86098000D02*
X39457000Y-85098000D01*
X80304000Y-64143000D02*
X80304000Y-65143000D01*
X78954000Y-65143000D02*
X78954000Y-64143000D01*
X86019000Y-64016000D02*
X86019000Y-65016000D01*
X84669000Y-65016000D02*
X84669000Y-64016000D01*
X86447000Y-65016000D02*
X86447000Y-64016000D01*
X87797000Y-64016000D02*
X87797000Y-65016000D01*
X65921000Y-92035000D02*
X66921000Y-92035000D01*
X66921000Y-93385000D02*
X65921000Y-93385000D01*
X65905000Y-100370000D02*
X64905000Y-100370000D01*
X64905000Y-99020000D02*
X65905000Y-99020000D01*
X63159000Y-95766000D02*
X63159000Y-96766000D01*
X61809000Y-96766000D02*
X61809000Y-95766000D01*
X64937000Y-95766000D02*
X64937000Y-96766000D01*
X63587000Y-96766000D02*
X63587000Y-95766000D01*
X57825000Y-95766000D02*
X57825000Y-96766000D01*
X56475000Y-96766000D02*
X56475000Y-95766000D01*
X56174000Y-95766000D02*
X56174000Y-96766000D01*
X54824000Y-96766000D02*
X54824000Y-95766000D01*
X90127780Y-91028890D02*
X90127780Y-88528890D01*
X90127780Y-88528890D02*
X91227780Y-88528890D01*
X91227780Y-88528890D02*
X91227780Y-91028890D01*
X91227780Y-91028890D02*
X90127780Y-91028890D01*
X91477780Y-91278890D02*
X91477780Y-88278890D01*
X89877780Y-91278890D02*
X89877780Y-88278890D01*
X89877780Y-88278890D02*
X91477780Y-88278890D01*
X89877780Y-91278890D02*
X91477780Y-91278890D01*
X92427780Y-92778890D02*
X92427780Y-86778890D01*
X88927780Y-92778890D02*
X88927780Y-86778890D01*
X88927780Y-92778890D02*
X92427780Y-92778890D01*
X88927780Y-86778890D02*
X92427780Y-86778890D01*
X67887000Y-79952000D02*
X67887000Y-79427000D01*
X60637000Y-79952000D02*
X60637000Y-79427000D01*
X60637000Y-72702000D02*
X60637000Y-73227000D01*
X67887000Y-72702000D02*
X67887000Y-73227000D01*
X67887000Y-79952000D02*
X67362000Y-79952000D01*
X67887000Y-72702000D02*
X67362000Y-72702000D01*
X60637000Y-72702000D02*
X61162000Y-72702000D01*
X60637000Y-79952000D02*
X61162000Y-79952000D01*
X67887000Y-79427000D02*
X69262000Y-79427000D01*
X59655000Y-60495000D02*
X59800000Y-60495000D01*
X59655000Y-56345000D02*
X59800000Y-56345000D01*
X64805000Y-56345000D02*
X64660000Y-56345000D01*
X64805000Y-60495000D02*
X64660000Y-60495000D01*
X59655000Y-60495000D02*
X59655000Y-56345000D01*
X64805000Y-60495000D02*
X64805000Y-56345000D01*
X59800000Y-60495000D02*
X59800000Y-61895000D01*
D11*
X39976711Y-61559000D02*
G75*
G03X39976711Y-61559000I-70711J0D01*
G01*
D13*
X40006000Y-60959000D02*
X40006000Y-44959000D01*
X56006000Y-60959000D02*
X56006000Y-44959000D01*
X58302000Y-103496000D02*
X58302000Y-102721000D01*
X62602000Y-99196000D02*
X62602000Y-99971000D01*
X58302000Y-99196000D02*
X58302000Y-99971000D01*
X62602000Y-103496000D02*
X61827000Y-103496000D01*
X62602000Y-99196000D02*
X61827000Y-99196000D01*
X58302000Y-99196000D02*
X59077000Y-99196000D01*
X58302000Y-103496000D02*
X59077000Y-103496000D01*
X77385000Y-113323000D02*
X77610000Y-113323000D01*
X77385000Y-108673000D02*
X77610000Y-108673000D01*
X82635000Y-108673000D02*
X82410000Y-108673000D01*
X82635000Y-113323000D02*
X82410000Y-113323000D01*
X77385000Y-113323000D02*
X77385000Y-108673000D01*
X82635000Y-113323000D02*
X82635000Y-108673000D01*
X77610000Y-113323000D02*
X77610000Y-114673000D01*
X70157340Y-103129080D02*
X70457060Y-103378000D01*
X70457060Y-103378000D02*
X70606920Y-103479600D01*
X70606920Y-103479600D02*
X69758560Y-103479600D01*
X71658480Y-102778560D02*
X69857620Y-102778560D01*
X71658480Y-102778560D02*
X71658480Y-103428800D01*
X71658480Y-107279440D02*
X69857620Y-107279440D01*
X71658480Y-107279440D02*
X71658480Y-106629200D01*
X67607000Y-129535000D02*
X67607000Y-129430000D01*
X63457000Y-129535000D02*
X63457000Y-129430000D01*
X63457000Y-119385000D02*
X63457000Y-119490000D01*
X67607000Y-119385000D02*
X67607000Y-119490000D01*
X67607000Y-129535000D02*
X63457000Y-129535000D01*
X67607000Y-119385000D02*
X63457000Y-119385000D01*
X67607000Y-129430000D02*
X68982000Y-129430000D01*
X70663000Y-81592600D02*
X70563000Y-81592600D01*
X70663000Y-79392600D02*
X70563000Y-79392600D01*
X73963000Y-79392600D02*
X70663000Y-79392600D01*
X73963000Y-81592600D02*
X70663000Y-81592600D01*
D11*
X73764000Y-58578000D02*
G75*
G03X73764000Y-58578000I-250000J0D01*
G01*
D13*
X72264000Y-59078000D02*
X72264000Y-60578000D01*
X72264000Y-46078000D02*
X72264000Y-44578000D01*
X88264000Y-46078000D02*
X88264000Y-44578000D01*
X88264000Y-59078000D02*
X88264000Y-60578000D01*
X72264000Y-59078000D02*
X72264000Y-46078000D01*
X88264000Y-46078000D02*
X88264000Y-59078000D01*
X74961000Y-107604000D02*
X75661000Y-107604000D01*
X75661000Y-108804000D02*
X74961000Y-108804000D01*
X43267000Y-96004000D02*
X43267000Y-95004000D01*
X44617000Y-95004000D02*
X44617000Y-96004000D01*
X46395000Y-95004000D02*
X46395000Y-96004000D01*
X45045000Y-96004000D02*
X45045000Y-95004000D01*
X49276000Y-91944000D02*
X48826000Y-91394000D01*
X48826000Y-91394000D02*
X49726000Y-91394000D01*
X49726000Y-91394000D02*
X49276000Y-91944000D01*
X48726000Y-91944000D02*
X49826000Y-91944000D01*
X51026060Y-93493140D02*
X50675540Y-93493140D01*
X47525940Y-93493140D02*
X47876460Y-93493140D01*
X51026060Y-89443560D02*
X50675540Y-89443560D01*
X51026060Y-93944440D02*
X50675540Y-93944440D01*
X47525940Y-93944440D02*
X47876460Y-93944440D01*
X47525940Y-89443560D02*
X47876460Y-89443560D01*
X51026060Y-93944440D02*
X51026060Y-89443560D01*
X47525940Y-93944440D02*
X47525940Y-89443560D01*
X46478000Y-103124000D02*
X45928000Y-103574000D01*
X45928000Y-103574000D02*
X45928000Y-102674000D01*
X45928000Y-102674000D02*
X46478000Y-103124000D01*
X46478000Y-103674000D02*
X46478000Y-102574000D01*
X48027140Y-101373940D02*
X48027140Y-101724460D01*
X48027140Y-104874060D02*
X48027140Y-104523540D01*
X43977560Y-101373940D02*
X43977560Y-101724460D01*
X48478440Y-101373940D02*
X48478440Y-101724460D01*
X48478440Y-104874060D02*
X48478440Y-104523540D01*
X43977560Y-104874060D02*
X43977560Y-104523540D01*
X48478440Y-101373940D02*
X43977560Y-101373940D01*
X48478440Y-104874060D02*
X43977560Y-104874060D01*
X86614000Y-102358000D02*
X86164000Y-101808000D01*
X86164000Y-101808000D02*
X87064000Y-101808000D01*
X87064000Y-101808000D02*
X86614000Y-102358000D01*
X86064000Y-102358000D02*
X87164000Y-102358000D01*
X88364060Y-103907140D02*
X88013540Y-103907140D01*
X84863940Y-103907140D02*
X85214460Y-103907140D01*
X88364060Y-99857560D02*
X88013540Y-99857560D01*
X88364060Y-104358440D02*
X88013540Y-104358440D01*
X84863940Y-104358440D02*
X85214460Y-104358440D01*
X84863940Y-99857560D02*
X85214460Y-99857560D01*
X88364060Y-104358440D02*
X88364060Y-99857560D01*
X84863940Y-104358440D02*
X84863940Y-99857560D01*
X45800000Y-109712000D02*
X45800000Y-107712000D01*
X44800000Y-108712000D02*
X46800000Y-108712000D01*
X45800000Y-125712000D02*
X45800000Y-127712000D01*
X45800000Y-127712000D02*
X55800000Y-127712000D01*
X55800000Y-127712000D02*
X55800000Y-125712000D01*
X45800000Y-110712000D02*
X55800000Y-110712000D01*
X55800000Y-110712000D02*
X55800000Y-125712000D01*
X45800000Y-110712000D02*
X45800000Y-125712000D01*
X89382000Y-70866000D02*
X89382000Y-69316000D01*
X89382000Y-69316000D02*
X92482000Y-69316000D01*
X92482000Y-69316000D02*
X92482000Y-70866000D01*
X92202000Y-72136000D02*
X92202000Y-82296000D01*
X92202000Y-82296000D02*
X89662000Y-82296000D01*
X89662000Y-82296000D02*
X89662000Y-72136000D01*
X92202000Y-72136000D02*
X89662000Y-72136000D01*
X36830000Y-101730000D02*
X36830000Y-99190000D01*
X36550000Y-104550000D02*
X36550000Y-103000000D01*
X36830000Y-101730000D02*
X39370000Y-101730000D01*
X39650000Y-103000000D02*
X39650000Y-104550000D01*
X39650000Y-104550000D02*
X36550000Y-104550000D01*
X39370000Y-101730000D02*
X39370000Y-99190000D01*
X39370000Y-99190000D02*
X36830000Y-99190000D01*
X92202000Y-101270000D02*
X92202000Y-103810000D01*
X92482000Y-98450000D02*
X92482000Y-100000000D01*
X92202000Y-101270000D02*
X89662000Y-101270000D01*
X89382000Y-100000000D02*
X89382000Y-98450000D01*
X89382000Y-98450000D02*
X92482000Y-98450000D01*
X89662000Y-101270000D02*
X89662000Y-103810000D01*
X89662000Y-103810000D02*
X92202000Y-103810000D01*
X39370000Y-114046000D02*
X39370000Y-108966000D01*
X39370000Y-108966000D02*
X36830000Y-108966000D01*
X36830000Y-108966000D02*
X36830000Y-114046000D01*
X36550000Y-116866000D02*
X36550000Y-115316000D01*
X36830000Y-114046000D02*
X39370000Y-114046000D01*
X39650000Y-115316000D02*
X39650000Y-116866000D01*
X39650000Y-116866000D02*
X36550000Y-116866000D01*
X48895000Y-132080000D02*
X46355000Y-132080000D01*
X51715000Y-132360000D02*
X50165000Y-132360000D01*
X48895000Y-132080000D02*
X48895000Y-129540000D01*
X50165000Y-129260000D02*
X51715000Y-129260000D01*
X51715000Y-129260000D02*
X51715000Y-132360000D01*
X48895000Y-129540000D02*
X46355000Y-129540000D01*
X46355000Y-129540000D02*
X46355000Y-132080000D01*
X78740000Y-132080000D02*
X76200000Y-132080000D01*
X81560000Y-132360000D02*
X80010000Y-132360000D01*
X78740000Y-132080000D02*
X78740000Y-129540000D01*
X80010000Y-129260000D02*
X81560000Y-129260000D01*
X81560000Y-129260000D02*
X81560000Y-132360000D01*
X78740000Y-129540000D02*
X76200000Y-129540000D01*
X76200000Y-129540000D02*
X76200000Y-132080000D01*
X41051500Y-72554500D02*
X41051500Y-72954500D01*
X41051500Y-72554500D02*
X40651500Y-72554500D01*
X37851500Y-72554500D02*
X37851500Y-72954500D01*
X37851500Y-72554500D02*
X38251500Y-72554500D01*
X37851500Y-75754500D02*
X37851500Y-75354500D01*
X37851500Y-75754500D02*
X38251500Y-75754500D01*
X41051500Y-75754500D02*
X40651500Y-75754500D01*
X83272334Y-87098143D02*
X83224715Y-87145762D01*
X83081858Y-87193381D01*
X82986620Y-87193381D01*
X82843762Y-87145762D01*
X82748524Y-87050524D01*
X82700905Y-86955286D01*
X82653286Y-86764810D01*
X82653286Y-86621952D01*
X82700905Y-86431476D01*
X82748524Y-86336238D01*
X82843762Y-86241000D01*
X82986620Y-86193381D01*
X83081858Y-86193381D01*
X83224715Y-86241000D01*
X83272334Y-86288619D01*
X84224715Y-87193381D02*
X83653286Y-87193381D01*
X83939000Y-87193381D02*
X83939000Y-86193381D01*
X83843762Y-86336238D01*
X83748524Y-86431476D01*
X83653286Y-86479095D01*
X75287143Y-83732666D02*
X75334762Y-83780285D01*
X75382381Y-83923142D01*
X75382381Y-84018380D01*
X75334762Y-84161238D01*
X75239524Y-84256476D01*
X75144286Y-84304095D01*
X74953810Y-84351714D01*
X74810952Y-84351714D01*
X74620476Y-84304095D01*
X74525238Y-84256476D01*
X74430000Y-84161238D01*
X74382381Y-84018380D01*
X74382381Y-83923142D01*
X74430000Y-83780285D01*
X74477619Y-83732666D01*
X74477619Y-83351714D02*
X74430000Y-83304095D01*
X74382381Y-83208857D01*
X74382381Y-82970761D01*
X74430000Y-82875523D01*
X74477619Y-82827904D01*
X74572857Y-82780285D01*
X74668095Y-82780285D01*
X74810952Y-82827904D01*
X75382381Y-83399333D01*
X75382381Y-82780285D01*
X69953143Y-83732666D02*
X70000762Y-83780285D01*
X70048381Y-83923142D01*
X70048381Y-84018380D01*
X70000762Y-84161238D01*
X69905524Y-84256476D01*
X69810286Y-84304095D01*
X69619810Y-84351714D01*
X69476952Y-84351714D01*
X69286476Y-84304095D01*
X69191238Y-84256476D01*
X69096000Y-84161238D01*
X69048381Y-84018380D01*
X69048381Y-83923142D01*
X69096000Y-83780285D01*
X69143619Y-83732666D01*
X69048381Y-83399333D02*
X69048381Y-82780285D01*
X69429333Y-83113619D01*
X69429333Y-82970761D01*
X69476952Y-82875523D01*
X69524571Y-82827904D01*
X69619810Y-82780285D01*
X69857905Y-82780285D01*
X69953143Y-82827904D01*
X70000762Y-82875523D01*
X70048381Y-82970761D01*
X70048381Y-83256476D01*
X70000762Y-83351714D01*
X69953143Y-83399333D01*
X38885834Y-69699143D02*
X38838215Y-69746762D01*
X38695358Y-69794381D01*
X38600120Y-69794381D01*
X38457262Y-69746762D01*
X38362024Y-69651524D01*
X38314405Y-69556286D01*
X38266786Y-69365810D01*
X38266786Y-69222952D01*
X38314405Y-69032476D01*
X38362024Y-68937238D01*
X38457262Y-68842000D01*
X38600120Y-68794381D01*
X38695358Y-68794381D01*
X38838215Y-68842000D01*
X38885834Y-68889619D01*
X39742977Y-69127714D02*
X39742977Y-69794381D01*
X39504881Y-68746762D02*
X39266786Y-69461048D01*
X39885834Y-69461048D01*
X43775334Y-69953143D02*
X43727715Y-70000762D01*
X43584858Y-70048381D01*
X43489620Y-70048381D01*
X43346762Y-70000762D01*
X43251524Y-69905524D01*
X43203905Y-69810286D01*
X43156286Y-69619810D01*
X43156286Y-69476952D01*
X43203905Y-69286476D01*
X43251524Y-69191238D01*
X43346762Y-69096000D01*
X43489620Y-69048381D01*
X43584858Y-69048381D01*
X43727715Y-69096000D01*
X43775334Y-69143619D01*
X44680096Y-69048381D02*
X44203905Y-69048381D01*
X44156286Y-69524571D01*
X44203905Y-69476952D01*
X44299143Y-69429333D01*
X44537239Y-69429333D01*
X44632477Y-69476952D01*
X44680096Y-69524571D01*
X44727715Y-69619810D01*
X44727715Y-69857905D01*
X44680096Y-69953143D01*
X44632477Y-70000762D01*
X44537239Y-70048381D01*
X44299143Y-70048381D01*
X44203905Y-70000762D01*
X44156286Y-69953143D01*
X46823334Y-75033143D02*
X46775715Y-75080762D01*
X46632858Y-75128381D01*
X46537620Y-75128381D01*
X46394762Y-75080762D01*
X46299524Y-74985524D01*
X46251905Y-74890286D01*
X46204286Y-74699810D01*
X46204286Y-74556952D01*
X46251905Y-74366476D01*
X46299524Y-74271238D01*
X46394762Y-74176000D01*
X46537620Y-74128381D01*
X46632858Y-74128381D01*
X46775715Y-74176000D01*
X46823334Y-74223619D01*
X47680477Y-74128381D02*
X47490000Y-74128381D01*
X47394762Y-74176000D01*
X47347143Y-74223619D01*
X47251905Y-74366476D01*
X47204286Y-74556952D01*
X47204286Y-74937905D01*
X47251905Y-75033143D01*
X47299524Y-75080762D01*
X47394762Y-75128381D01*
X47585239Y-75128381D01*
X47680477Y-75080762D01*
X47728096Y-75033143D01*
X47775715Y-74937905D01*
X47775715Y-74699810D01*
X47728096Y-74604571D01*
X47680477Y-74556952D01*
X47585239Y-74509333D01*
X47394762Y-74509333D01*
X47299524Y-74556952D01*
X47251905Y-74604571D01*
X47204286Y-74699810D01*
X38711143Y-83224666D02*
X38758762Y-83272285D01*
X38806381Y-83415142D01*
X38806381Y-83510380D01*
X38758762Y-83653238D01*
X38663524Y-83748476D01*
X38568286Y-83796095D01*
X38377810Y-83843714D01*
X38234952Y-83843714D01*
X38044476Y-83796095D01*
X37949238Y-83748476D01*
X37854000Y-83653238D01*
X37806381Y-83510380D01*
X37806381Y-83415142D01*
X37854000Y-83272285D01*
X37901619Y-83224666D01*
X37806381Y-82891333D02*
X37806381Y-82224666D01*
X38806381Y-82653238D01*
X71477143Y-62396666D02*
X71524762Y-62444285D01*
X71572381Y-62587142D01*
X71572381Y-62682380D01*
X71524762Y-62825238D01*
X71429524Y-62920476D01*
X71334286Y-62968095D01*
X71143810Y-63015714D01*
X71000952Y-63015714D01*
X70810476Y-62968095D01*
X70715238Y-62920476D01*
X70620000Y-62825238D01*
X70572381Y-62682380D01*
X70572381Y-62587142D01*
X70620000Y-62444285D01*
X70667619Y-62396666D01*
X71000952Y-61825238D02*
X70953333Y-61920476D01*
X70905714Y-61968095D01*
X70810476Y-62015714D01*
X70762857Y-62015714D01*
X70667619Y-61968095D01*
X70620000Y-61920476D01*
X70572381Y-61825238D01*
X70572381Y-61634761D01*
X70620000Y-61539523D01*
X70667619Y-61491904D01*
X70762857Y-61444285D01*
X70810476Y-61444285D01*
X70905714Y-61491904D01*
X70953333Y-61539523D01*
X71000952Y-61634761D01*
X71000952Y-61825238D01*
X71048571Y-61920476D01*
X71096190Y-61968095D01*
X71191429Y-62015714D01*
X71381905Y-62015714D01*
X71477143Y-61968095D01*
X71524762Y-61920476D01*
X71572381Y-61825238D01*
X71572381Y-61634761D01*
X71524762Y-61539523D01*
X71477143Y-61491904D01*
X71381905Y-61444285D01*
X71191429Y-61444285D01*
X71096190Y-61491904D01*
X71048571Y-61539523D01*
X71000952Y-61634761D01*
X66651143Y-84494666D02*
X66698762Y-84542285D01*
X66746381Y-84685142D01*
X66746381Y-84780380D01*
X66698762Y-84923238D01*
X66603524Y-85018476D01*
X66508286Y-85066095D01*
X66317810Y-85113714D01*
X66174952Y-85113714D01*
X65984476Y-85066095D01*
X65889238Y-85018476D01*
X65794000Y-84923238D01*
X65746381Y-84780380D01*
X65746381Y-84685142D01*
X65794000Y-84542285D01*
X65841619Y-84494666D01*
X66746381Y-84018476D02*
X66746381Y-83828000D01*
X66698762Y-83732761D01*
X66651143Y-83685142D01*
X66508286Y-83589904D01*
X66317810Y-83542285D01*
X65936857Y-83542285D01*
X65841619Y-83589904D01*
X65794000Y-83637523D01*
X65746381Y-83732761D01*
X65746381Y-83923238D01*
X65794000Y-84018476D01*
X65841619Y-84066095D01*
X65936857Y-84113714D01*
X66174952Y-84113714D01*
X66270190Y-84066095D01*
X66317810Y-84018476D01*
X66365429Y-83923238D01*
X66365429Y-83732761D01*
X66317810Y-83637523D01*
X66270190Y-83589904D01*
X66174952Y-83542285D01*
X76319143Y-77446143D02*
X76271524Y-77493762D01*
X76128667Y-77541381D01*
X76033429Y-77541381D01*
X75890571Y-77493762D01*
X75795333Y-77398524D01*
X75747714Y-77303286D01*
X75700095Y-77112810D01*
X75700095Y-76969952D01*
X75747714Y-76779476D01*
X75795333Y-76684238D01*
X75890571Y-76589000D01*
X76033429Y-76541381D01*
X76128667Y-76541381D01*
X76271524Y-76589000D01*
X76319143Y-76636619D01*
X77271524Y-77541381D02*
X76700095Y-77541381D01*
X76985809Y-77541381D02*
X76985809Y-76541381D01*
X76890571Y-76684238D01*
X76795333Y-76779476D01*
X76700095Y-76827095D01*
X77890571Y-76541381D02*
X77985810Y-76541381D01*
X78081048Y-76589000D01*
X78128667Y-76636619D01*
X78176286Y-76731857D01*
X78223905Y-76922333D01*
X78223905Y-77160429D01*
X78176286Y-77350905D01*
X78128667Y-77446143D01*
X78081048Y-77493762D01*
X77985810Y-77541381D01*
X77890571Y-77541381D01*
X77795333Y-77493762D01*
X77747714Y-77446143D01*
X77700095Y-77350905D01*
X77652476Y-77160429D01*
X77652476Y-76922333D01*
X77700095Y-76731857D01*
X77747714Y-76636619D01*
X77795333Y-76589000D01*
X77890571Y-76541381D01*
X69572143Y-63507857D02*
X69619762Y-63555476D01*
X69667381Y-63698333D01*
X69667381Y-63793571D01*
X69619762Y-63936429D01*
X69524524Y-64031667D01*
X69429286Y-64079286D01*
X69238810Y-64126905D01*
X69095952Y-64126905D01*
X68905476Y-64079286D01*
X68810238Y-64031667D01*
X68715000Y-63936429D01*
X68667381Y-63793571D01*
X68667381Y-63698333D01*
X68715000Y-63555476D01*
X68762619Y-63507857D01*
X69667381Y-62555476D02*
X69667381Y-63126905D01*
X69667381Y-62841191D02*
X68667381Y-62841191D01*
X68810238Y-62936429D01*
X68905476Y-63031667D01*
X68953095Y-63126905D01*
X69667381Y-61603095D02*
X69667381Y-62174524D01*
X69667381Y-61888810D02*
X68667381Y-61888810D01*
X68810238Y-61984048D01*
X68905476Y-62079286D01*
X68953095Y-62174524D01*
X62333143Y-86494857D02*
X62380762Y-86542476D01*
X62428381Y-86685333D01*
X62428381Y-86780571D01*
X62380762Y-86923429D01*
X62285524Y-87018667D01*
X62190286Y-87066286D01*
X61999810Y-87113905D01*
X61856952Y-87113905D01*
X61666476Y-87066286D01*
X61571238Y-87018667D01*
X61476000Y-86923429D01*
X61428381Y-86780571D01*
X61428381Y-86685333D01*
X61476000Y-86542476D01*
X61523619Y-86494857D01*
X62428381Y-85542476D02*
X62428381Y-86113905D01*
X62428381Y-85828191D02*
X61428381Y-85828191D01*
X61571238Y-85923429D01*
X61666476Y-86018667D01*
X61714095Y-86113905D01*
X61523619Y-85161524D02*
X61476000Y-85113905D01*
X61428381Y-85018667D01*
X61428381Y-84780571D01*
X61476000Y-84685333D01*
X61523619Y-84637714D01*
X61618857Y-84590095D01*
X61714095Y-84590095D01*
X61856952Y-84637714D01*
X62428381Y-85209143D01*
X62428381Y-84590095D01*
X60047143Y-82303857D02*
X60094762Y-82351476D01*
X60142381Y-82494333D01*
X60142381Y-82589571D01*
X60094762Y-82732429D01*
X59999524Y-82827667D01*
X59904286Y-82875286D01*
X59713810Y-82922905D01*
X59570952Y-82922905D01*
X59380476Y-82875286D01*
X59285238Y-82827667D01*
X59190000Y-82732429D01*
X59142381Y-82589571D01*
X59142381Y-82494333D01*
X59190000Y-82351476D01*
X59237619Y-82303857D01*
X60142381Y-81351476D02*
X60142381Y-81922905D01*
X60142381Y-81637191D02*
X59142381Y-81637191D01*
X59285238Y-81732429D01*
X59380476Y-81827667D01*
X59428095Y-81922905D01*
X59142381Y-81018143D02*
X59142381Y-80399095D01*
X59523333Y-80732429D01*
X59523333Y-80589571D01*
X59570952Y-80494333D01*
X59618571Y-80446714D01*
X59713810Y-80399095D01*
X59951905Y-80399095D01*
X60047143Y-80446714D01*
X60094762Y-80494333D01*
X60142381Y-80589571D01*
X60142381Y-80875286D01*
X60094762Y-80970524D01*
X60047143Y-81018143D01*
X63857143Y-69476857D02*
X63904762Y-69524476D01*
X63952381Y-69667333D01*
X63952381Y-69762571D01*
X63904762Y-69905429D01*
X63809524Y-70000667D01*
X63714286Y-70048286D01*
X63523810Y-70095905D01*
X63380952Y-70095905D01*
X63190476Y-70048286D01*
X63095238Y-70000667D01*
X63000000Y-69905429D01*
X62952381Y-69762571D01*
X62952381Y-69667333D01*
X63000000Y-69524476D01*
X63047619Y-69476857D01*
X63952381Y-68524476D02*
X63952381Y-69095905D01*
X63952381Y-68810191D02*
X62952381Y-68810191D01*
X63095238Y-68905429D01*
X63190476Y-69000667D01*
X63238095Y-69095905D01*
X63285714Y-67667333D02*
X63952381Y-67667333D01*
X62904762Y-67905429D02*
X63619048Y-68143524D01*
X63619048Y-67524476D01*
X60555143Y-111132857D02*
X60602762Y-111180476D01*
X60650381Y-111323333D01*
X60650381Y-111418571D01*
X60602762Y-111561429D01*
X60507524Y-111656667D01*
X60412286Y-111704286D01*
X60221810Y-111751905D01*
X60078952Y-111751905D01*
X59888476Y-111704286D01*
X59793238Y-111656667D01*
X59698000Y-111561429D01*
X59650381Y-111418571D01*
X59650381Y-111323333D01*
X59698000Y-111180476D01*
X59745619Y-111132857D01*
X60650381Y-110180476D02*
X60650381Y-110751905D01*
X60650381Y-110466191D02*
X59650381Y-110466191D01*
X59793238Y-110561429D01*
X59888476Y-110656667D01*
X59936095Y-110751905D01*
X59650381Y-109323333D02*
X59650381Y-109513810D01*
X59698000Y-109609048D01*
X59745619Y-109656667D01*
X59888476Y-109751905D01*
X60078952Y-109799524D01*
X60459905Y-109799524D01*
X60555143Y-109751905D01*
X60602762Y-109704286D01*
X60650381Y-109609048D01*
X60650381Y-109418571D01*
X60602762Y-109323333D01*
X60555143Y-109275714D01*
X60459905Y-109228095D01*
X60221810Y-109228095D01*
X60126571Y-109275714D01*
X60078952Y-109323333D01*
X60031333Y-109418571D01*
X60031333Y-109609048D01*
X60078952Y-109704286D01*
X60126571Y-109751905D01*
X60221810Y-109799524D01*
X60555143Y-53982857D02*
X60602762Y-54030476D01*
X60650381Y-54173333D01*
X60650381Y-54268571D01*
X60602762Y-54411429D01*
X60507524Y-54506667D01*
X60412286Y-54554286D01*
X60221810Y-54601905D01*
X60078952Y-54601905D01*
X59888476Y-54554286D01*
X59793238Y-54506667D01*
X59698000Y-54411429D01*
X59650381Y-54268571D01*
X59650381Y-54173333D01*
X59698000Y-54030476D01*
X59745619Y-53982857D01*
X60650381Y-53030476D02*
X60650381Y-53601905D01*
X60650381Y-53316191D02*
X59650381Y-53316191D01*
X59793238Y-53411429D01*
X59888476Y-53506667D01*
X59936095Y-53601905D01*
X59650381Y-52697143D02*
X59650381Y-52030476D01*
X60650381Y-52459048D01*
X64111143Y-53982857D02*
X64158762Y-54030476D01*
X64206381Y-54173333D01*
X64206381Y-54268571D01*
X64158762Y-54411429D01*
X64063524Y-54506667D01*
X63968286Y-54554286D01*
X63777810Y-54601905D01*
X63634952Y-54601905D01*
X63444476Y-54554286D01*
X63349238Y-54506667D01*
X63254000Y-54411429D01*
X63206381Y-54268571D01*
X63206381Y-54173333D01*
X63254000Y-54030476D01*
X63301619Y-53982857D01*
X64206381Y-53030476D02*
X64206381Y-53601905D01*
X64206381Y-53316191D02*
X63206381Y-53316191D01*
X63349238Y-53411429D01*
X63444476Y-53506667D01*
X63492095Y-53601905D01*
X63634952Y-52459048D02*
X63587333Y-52554286D01*
X63539714Y-52601905D01*
X63444476Y-52649524D01*
X63396857Y-52649524D01*
X63301619Y-52601905D01*
X63254000Y-52554286D01*
X63206381Y-52459048D01*
X63206381Y-52268571D01*
X63254000Y-52173333D01*
X63301619Y-52125714D01*
X63396857Y-52078095D01*
X63444476Y-52078095D01*
X63539714Y-52125714D01*
X63587333Y-52173333D01*
X63634952Y-52268571D01*
X63634952Y-52459048D01*
X63682571Y-52554286D01*
X63730190Y-52601905D01*
X63825429Y-52649524D01*
X64015905Y-52649524D01*
X64111143Y-52601905D01*
X64158762Y-52554286D01*
X64206381Y-52459048D01*
X64206381Y-52268571D01*
X64158762Y-52173333D01*
X64111143Y-52125714D01*
X64015905Y-52078095D01*
X63825429Y-52078095D01*
X63730190Y-52125714D01*
X63682571Y-52173333D01*
X63634952Y-52268571D01*
X62333143Y-53982857D02*
X62380762Y-54030476D01*
X62428381Y-54173333D01*
X62428381Y-54268571D01*
X62380762Y-54411429D01*
X62285524Y-54506667D01*
X62190286Y-54554286D01*
X61999810Y-54601905D01*
X61856952Y-54601905D01*
X61666476Y-54554286D01*
X61571238Y-54506667D01*
X61476000Y-54411429D01*
X61428381Y-54268571D01*
X61428381Y-54173333D01*
X61476000Y-54030476D01*
X61523619Y-53982857D01*
X62428381Y-53030476D02*
X62428381Y-53601905D01*
X62428381Y-53316191D02*
X61428381Y-53316191D01*
X61571238Y-53411429D01*
X61666476Y-53506667D01*
X61714095Y-53601905D01*
X62428381Y-52554286D02*
X62428381Y-52363810D01*
X62380762Y-52268571D01*
X62333143Y-52220952D01*
X62190286Y-52125714D01*
X61999810Y-52078095D01*
X61618857Y-52078095D01*
X61523619Y-52125714D01*
X61476000Y-52173333D01*
X61428381Y-52268571D01*
X61428381Y-52459048D01*
X61476000Y-52554286D01*
X61523619Y-52601905D01*
X61618857Y-52649524D01*
X61856952Y-52649524D01*
X61952190Y-52601905D01*
X61999810Y-52554286D01*
X62047429Y-52459048D01*
X62047429Y-52268571D01*
X61999810Y-52173333D01*
X61952190Y-52125714D01*
X61856952Y-52078095D01*
X59031143Y-111132857D02*
X59078762Y-111180476D01*
X59126381Y-111323333D01*
X59126381Y-111418571D01*
X59078762Y-111561429D01*
X58983524Y-111656667D01*
X58888286Y-111704286D01*
X58697810Y-111751905D01*
X58554952Y-111751905D01*
X58364476Y-111704286D01*
X58269238Y-111656667D01*
X58174000Y-111561429D01*
X58126381Y-111418571D01*
X58126381Y-111323333D01*
X58174000Y-111180476D01*
X58221619Y-111132857D01*
X58221619Y-110751905D02*
X58174000Y-110704286D01*
X58126381Y-110609048D01*
X58126381Y-110370952D01*
X58174000Y-110275714D01*
X58221619Y-110228095D01*
X58316857Y-110180476D01*
X58412095Y-110180476D01*
X58554952Y-110228095D01*
X59126381Y-110799524D01*
X59126381Y-110180476D01*
X58126381Y-109561429D02*
X58126381Y-109466190D01*
X58174000Y-109370952D01*
X58221619Y-109323333D01*
X58316857Y-109275714D01*
X58507333Y-109228095D01*
X58745429Y-109228095D01*
X58935905Y-109275714D01*
X59031143Y-109323333D01*
X59078762Y-109370952D01*
X59126381Y-109466190D01*
X59126381Y-109561429D01*
X59078762Y-109656667D01*
X59031143Y-109704286D01*
X58935905Y-109751905D01*
X58745429Y-109799524D01*
X58507333Y-109799524D01*
X58316857Y-109751905D01*
X58221619Y-109704286D01*
X58174000Y-109656667D01*
X58126381Y-109561429D01*
X74541143Y-121515143D02*
X74493524Y-121562762D01*
X74350667Y-121610381D01*
X74255429Y-121610381D01*
X74112571Y-121562762D01*
X74017333Y-121467524D01*
X73969714Y-121372286D01*
X73922095Y-121181810D01*
X73922095Y-121038952D01*
X73969714Y-120848476D01*
X74017333Y-120753238D01*
X74112571Y-120658000D01*
X74255429Y-120610381D01*
X74350667Y-120610381D01*
X74493524Y-120658000D01*
X74541143Y-120705619D01*
X74922095Y-120705619D02*
X74969714Y-120658000D01*
X75064952Y-120610381D01*
X75303048Y-120610381D01*
X75398286Y-120658000D01*
X75445905Y-120705619D01*
X75493524Y-120800857D01*
X75493524Y-120896095D01*
X75445905Y-121038952D01*
X74874476Y-121610381D01*
X75493524Y-121610381D01*
X76445905Y-121610381D02*
X75874476Y-121610381D01*
X76160190Y-121610381D02*
X76160190Y-120610381D01*
X76064952Y-120753238D01*
X75969714Y-120848476D01*
X75874476Y-120896095D01*
X74493143Y-119991143D02*
X74445524Y-120038762D01*
X74302667Y-120086381D01*
X74207429Y-120086381D01*
X74064571Y-120038762D01*
X73969333Y-119943524D01*
X73921714Y-119848286D01*
X73874095Y-119657810D01*
X73874095Y-119514952D01*
X73921714Y-119324476D01*
X73969333Y-119229238D01*
X74064571Y-119134000D01*
X74207429Y-119086381D01*
X74302667Y-119086381D01*
X74445524Y-119134000D01*
X74493143Y-119181619D01*
X74874095Y-119181619D02*
X74921714Y-119134000D01*
X75016952Y-119086381D01*
X75255048Y-119086381D01*
X75350286Y-119134000D01*
X75397905Y-119181619D01*
X75445524Y-119276857D01*
X75445524Y-119372095D01*
X75397905Y-119514952D01*
X74826476Y-120086381D01*
X75445524Y-120086381D01*
X75826476Y-119181619D02*
X75874095Y-119134000D01*
X75969333Y-119086381D01*
X76207429Y-119086381D01*
X76302667Y-119134000D01*
X76350286Y-119181619D01*
X76397905Y-119276857D01*
X76397905Y-119372095D01*
X76350286Y-119514952D01*
X75778857Y-120086381D01*
X76397905Y-120086381D01*
X71620143Y-108434143D02*
X71572524Y-108481762D01*
X71429667Y-108529381D01*
X71334429Y-108529381D01*
X71191571Y-108481762D01*
X71096333Y-108386524D01*
X71048714Y-108291286D01*
X71001095Y-108100810D01*
X71001095Y-107957952D01*
X71048714Y-107767476D01*
X71096333Y-107672238D01*
X71191571Y-107577000D01*
X71334429Y-107529381D01*
X71429667Y-107529381D01*
X71572524Y-107577000D01*
X71620143Y-107624619D01*
X72001095Y-107624619D02*
X72048714Y-107577000D01*
X72143952Y-107529381D01*
X72382048Y-107529381D01*
X72477286Y-107577000D01*
X72524905Y-107624619D01*
X72572524Y-107719857D01*
X72572524Y-107815095D01*
X72524905Y-107957952D01*
X71953476Y-108529381D01*
X72572524Y-108529381D01*
X72905857Y-107529381D02*
X73524905Y-107529381D01*
X73191571Y-107910333D01*
X73334429Y-107910333D01*
X73429667Y-107957952D01*
X73477286Y-108005571D01*
X73524905Y-108100810D01*
X73524905Y-108338905D01*
X73477286Y-108434143D01*
X73429667Y-108481762D01*
X73334429Y-108529381D01*
X73048714Y-108529381D01*
X72953476Y-108481762D01*
X72905857Y-108434143D01*
X74541143Y-118467143D02*
X74493524Y-118514762D01*
X74350667Y-118562381D01*
X74255429Y-118562381D01*
X74112571Y-118514762D01*
X74017333Y-118419524D01*
X73969714Y-118324286D01*
X73922095Y-118133810D01*
X73922095Y-117990952D01*
X73969714Y-117800476D01*
X74017333Y-117705238D01*
X74112571Y-117610000D01*
X74255429Y-117562381D01*
X74350667Y-117562381D01*
X74493524Y-117610000D01*
X74541143Y-117657619D01*
X74922095Y-117657619D02*
X74969714Y-117610000D01*
X75064952Y-117562381D01*
X75303048Y-117562381D01*
X75398286Y-117610000D01*
X75445905Y-117657619D01*
X75493524Y-117752857D01*
X75493524Y-117848095D01*
X75445905Y-117990952D01*
X74874476Y-118562381D01*
X75493524Y-118562381D01*
X76350667Y-117895714D02*
X76350667Y-118562381D01*
X76112571Y-117514762D02*
X75874476Y-118229048D01*
X76493524Y-118229048D01*
X74493143Y-123039143D02*
X74445524Y-123086762D01*
X74302667Y-123134381D01*
X74207429Y-123134381D01*
X74064571Y-123086762D01*
X73969333Y-122991524D01*
X73921714Y-122896286D01*
X73874095Y-122705810D01*
X73874095Y-122562952D01*
X73921714Y-122372476D01*
X73969333Y-122277238D01*
X74064571Y-122182000D01*
X74207429Y-122134381D01*
X74302667Y-122134381D01*
X74445524Y-122182000D01*
X74493143Y-122229619D01*
X74874095Y-122229619D02*
X74921714Y-122182000D01*
X75016952Y-122134381D01*
X75255048Y-122134381D01*
X75350286Y-122182000D01*
X75397905Y-122229619D01*
X75445524Y-122324857D01*
X75445524Y-122420095D01*
X75397905Y-122562952D01*
X74826476Y-123134381D01*
X75445524Y-123134381D01*
X76302667Y-122134381D02*
X76112190Y-122134381D01*
X76016952Y-122182000D01*
X75969333Y-122229619D01*
X75874095Y-122372476D01*
X75826476Y-122562952D01*
X75826476Y-122943905D01*
X75874095Y-123039143D01*
X75921714Y-123086762D01*
X76016952Y-123134381D01*
X76207429Y-123134381D01*
X76302667Y-123086762D01*
X76350286Y-123039143D01*
X76397905Y-122943905D01*
X76397905Y-122705810D01*
X76350286Y-122610571D01*
X76302667Y-122562952D01*
X76207429Y-122515333D01*
X76016952Y-122515333D01*
X75921714Y-122562952D01*
X75874095Y-122610571D01*
X75826476Y-122705810D01*
X71620143Y-102084143D02*
X71572524Y-102131762D01*
X71429667Y-102179381D01*
X71334429Y-102179381D01*
X71191571Y-102131762D01*
X71096333Y-102036524D01*
X71048714Y-101941286D01*
X71001095Y-101750810D01*
X71001095Y-101607952D01*
X71048714Y-101417476D01*
X71096333Y-101322238D01*
X71191571Y-101227000D01*
X71334429Y-101179381D01*
X71429667Y-101179381D01*
X71572524Y-101227000D01*
X71620143Y-101274619D01*
X72001095Y-101274619D02*
X72048714Y-101227000D01*
X72143952Y-101179381D01*
X72382048Y-101179381D01*
X72477286Y-101227000D01*
X72524905Y-101274619D01*
X72572524Y-101369857D01*
X72572524Y-101465095D01*
X72524905Y-101607952D01*
X71953476Y-102179381D01*
X72572524Y-102179381D01*
X72905857Y-101179381D02*
X73572524Y-101179381D01*
X73143952Y-102179381D01*
X74541143Y-125452143D02*
X74493524Y-125499762D01*
X74350667Y-125547381D01*
X74255429Y-125547381D01*
X74112571Y-125499762D01*
X74017333Y-125404524D01*
X73969714Y-125309286D01*
X73922095Y-125118810D01*
X73922095Y-124975952D01*
X73969714Y-124785476D01*
X74017333Y-124690238D01*
X74112571Y-124595000D01*
X74255429Y-124547381D01*
X74350667Y-124547381D01*
X74493524Y-124595000D01*
X74541143Y-124642619D01*
X74922095Y-124642619D02*
X74969714Y-124595000D01*
X75064952Y-124547381D01*
X75303048Y-124547381D01*
X75398286Y-124595000D01*
X75445905Y-124642619D01*
X75493524Y-124737857D01*
X75493524Y-124833095D01*
X75445905Y-124975952D01*
X74874476Y-125547381D01*
X75493524Y-125547381D01*
X76064952Y-124975952D02*
X75969714Y-124928333D01*
X75922095Y-124880714D01*
X75874476Y-124785476D01*
X75874476Y-124737857D01*
X75922095Y-124642619D01*
X75969714Y-124595000D01*
X76064952Y-124547381D01*
X76255429Y-124547381D01*
X76350667Y-124595000D01*
X76398286Y-124642619D01*
X76445905Y-124737857D01*
X76445905Y-124785476D01*
X76398286Y-124880714D01*
X76350667Y-124928333D01*
X76255429Y-124975952D01*
X76064952Y-124975952D01*
X75969714Y-125023571D01*
X75922095Y-125071190D01*
X75874476Y-125166429D01*
X75874476Y-125356905D01*
X75922095Y-125452143D01*
X75969714Y-125499762D01*
X76064952Y-125547381D01*
X76255429Y-125547381D01*
X76350667Y-125499762D01*
X76398286Y-125452143D01*
X76445905Y-125356905D01*
X76445905Y-125166429D01*
X76398286Y-125071190D01*
X76350667Y-125023571D01*
X76255429Y-124975952D01*
X58539143Y-123928143D02*
X58491524Y-123975762D01*
X58348667Y-124023381D01*
X58253429Y-124023381D01*
X58110571Y-123975762D01*
X58015333Y-123880524D01*
X57967714Y-123785286D01*
X57920095Y-123594810D01*
X57920095Y-123451952D01*
X57967714Y-123261476D01*
X58015333Y-123166238D01*
X58110571Y-123071000D01*
X58253429Y-123023381D01*
X58348667Y-123023381D01*
X58491524Y-123071000D01*
X58539143Y-123118619D01*
X58920095Y-123118619D02*
X58967714Y-123071000D01*
X59062952Y-123023381D01*
X59301048Y-123023381D01*
X59396286Y-123071000D01*
X59443905Y-123118619D01*
X59491524Y-123213857D01*
X59491524Y-123309095D01*
X59443905Y-123451952D01*
X58872476Y-124023381D01*
X59491524Y-124023381D01*
X59967714Y-124023381D02*
X60158190Y-124023381D01*
X60253429Y-123975762D01*
X60301048Y-123928143D01*
X60396286Y-123785286D01*
X60443905Y-123594810D01*
X60443905Y-123213857D01*
X60396286Y-123118619D01*
X60348667Y-123071000D01*
X60253429Y-123023381D01*
X60062952Y-123023381D01*
X59967714Y-123071000D01*
X59920095Y-123118619D01*
X59872476Y-123213857D01*
X59872476Y-123451952D01*
X59920095Y-123547190D01*
X59967714Y-123594810D01*
X60062952Y-123642429D01*
X60253429Y-123642429D01*
X60348667Y-123594810D01*
X60396286Y-123547190D01*
X60443905Y-123451952D01*
X61841143Y-114149143D02*
X61793524Y-114196762D01*
X61650667Y-114244381D01*
X61555429Y-114244381D01*
X61412571Y-114196762D01*
X61317333Y-114101524D01*
X61269714Y-114006286D01*
X61222095Y-113815810D01*
X61222095Y-113672952D01*
X61269714Y-113482476D01*
X61317333Y-113387238D01*
X61412571Y-113292000D01*
X61555429Y-113244381D01*
X61650667Y-113244381D01*
X61793524Y-113292000D01*
X61841143Y-113339619D01*
X62174476Y-113244381D02*
X62793524Y-113244381D01*
X62460190Y-113625333D01*
X62603048Y-113625333D01*
X62698286Y-113672952D01*
X62745905Y-113720571D01*
X62793524Y-113815810D01*
X62793524Y-114053905D01*
X62745905Y-114149143D01*
X62698286Y-114196762D01*
X62603048Y-114244381D01*
X62317333Y-114244381D01*
X62222095Y-114196762D01*
X62174476Y-114149143D01*
X63412571Y-113244381D02*
X63507810Y-113244381D01*
X63603048Y-113292000D01*
X63650667Y-113339619D01*
X63698286Y-113434857D01*
X63745905Y-113625333D01*
X63745905Y-113863429D01*
X63698286Y-114053905D01*
X63650667Y-114149143D01*
X63603048Y-114196762D01*
X63507810Y-114244381D01*
X63412571Y-114244381D01*
X63317333Y-114196762D01*
X63269714Y-114149143D01*
X63222095Y-114053905D01*
X63174476Y-113863429D01*
X63174476Y-113625333D01*
X63222095Y-113434857D01*
X63269714Y-113339619D01*
X63317333Y-113292000D01*
X63412571Y-113244381D01*
D15*
X44395572Y-90514714D02*
X44395572Y-89752714D01*
X44577000Y-89752714D01*
X44685857Y-89789000D01*
X44758429Y-89861571D01*
X44794714Y-89934143D01*
X44831000Y-90079286D01*
X44831000Y-90188143D01*
X44794714Y-90333286D01*
X44758429Y-90405857D01*
X44685857Y-90478429D01*
X44577000Y-90514714D01*
X44395572Y-90514714D01*
X45556714Y-90514714D02*
X45121286Y-90514714D01*
X45339000Y-90514714D02*
X45339000Y-89752714D01*
X45266429Y-89861571D01*
X45193857Y-89934143D01*
X45121286Y-89970429D01*
D13*
X50379381Y-38560333D02*
X51093667Y-38560333D01*
X51236524Y-38607953D01*
X51331762Y-38703191D01*
X51379381Y-38846048D01*
X51379381Y-38941286D01*
X51379381Y-37560333D02*
X51379381Y-38131762D01*
X51379381Y-37846048D02*
X50379381Y-37846048D01*
X50522238Y-37941286D01*
X50617476Y-38036524D01*
X50665095Y-38131762D01*
X44537334Y-87066381D02*
X44061143Y-87066381D01*
X44061143Y-86066381D01*
X45394477Y-87066381D02*
X44823048Y-87066381D01*
X45108762Y-87066381D02*
X45108762Y-86066381D01*
X45013524Y-86209238D01*
X44918286Y-86304476D01*
X44823048Y-86352095D01*
X76160334Y-75636381D02*
X75684143Y-75636381D01*
X75684143Y-74636381D01*
X76446048Y-74731619D02*
X76493667Y-74684000D01*
X76588905Y-74636381D01*
X76827001Y-74636381D01*
X76922239Y-74684000D01*
X76969858Y-74731619D01*
X77017477Y-74826857D01*
X77017477Y-74922095D01*
X76969858Y-75064952D01*
X76398429Y-75636381D01*
X77017477Y-75636381D01*
X38690476Y-35752381D02*
X38690476Y-34752381D01*
X39023810Y-35466667D01*
X39357143Y-34752381D01*
X39357143Y-35752381D01*
X40357143Y-35752381D02*
X39785714Y-35752381D01*
X40071428Y-35752381D02*
X40071428Y-34752381D01*
X39976190Y-34895238D01*
X39880952Y-34990476D01*
X39785714Y-35038095D01*
X88690476Y-35752381D02*
X88690476Y-34752381D01*
X89023810Y-35466667D01*
X89357143Y-34752381D01*
X89357143Y-35752381D01*
X89785714Y-34847619D02*
X89833333Y-34800000D01*
X89928571Y-34752381D01*
X90166667Y-34752381D01*
X90261905Y-34800000D01*
X90309524Y-34847619D01*
X90357143Y-34942857D01*
X90357143Y-35038095D01*
X90309524Y-35180952D01*
X89738095Y-35752381D01*
X90357143Y-35752381D01*
X88690476Y-125752381D02*
X88690476Y-124752381D01*
X89023810Y-125466667D01*
X89357143Y-124752381D01*
X89357143Y-125752381D01*
X89738095Y-124752381D02*
X90357143Y-124752381D01*
X90023809Y-125133333D01*
X90166667Y-125133333D01*
X90261905Y-125180952D01*
X90309524Y-125228571D01*
X90357143Y-125323810D01*
X90357143Y-125561905D01*
X90309524Y-125657143D01*
X90261905Y-125704762D01*
X90166667Y-125752381D01*
X89880952Y-125752381D01*
X89785714Y-125704762D01*
X89738095Y-125657143D01*
X38690476Y-125752381D02*
X38690476Y-124752381D01*
X39023810Y-125466667D01*
X39357143Y-124752381D01*
X39357143Y-125752381D01*
X40261905Y-125085714D02*
X40261905Y-125752381D01*
X40023809Y-124704762D02*
X39785714Y-125419048D01*
X40404762Y-125419048D01*
X37361905Y-98750381D02*
X37361905Y-97750381D01*
X37742858Y-97750381D01*
X37838096Y-97798000D01*
X37885715Y-97845619D01*
X37933334Y-97940857D01*
X37933334Y-98083714D01*
X37885715Y-98178952D01*
X37838096Y-98226571D01*
X37742858Y-98274190D01*
X37361905Y-98274190D01*
X38885715Y-98750381D02*
X38314286Y-98750381D01*
X38600000Y-98750381D02*
X38600000Y-97750381D01*
X38504762Y-97893238D01*
X38409524Y-97988476D01*
X38314286Y-98036095D01*
X70889905Y-99893381D02*
X70889905Y-98893381D01*
X71270858Y-98893381D01*
X71366096Y-98941000D01*
X71413715Y-98988619D01*
X71461334Y-99083857D01*
X71461334Y-99226714D01*
X71413715Y-99321952D01*
X71366096Y-99369571D01*
X71270858Y-99417190D01*
X70889905Y-99417190D01*
X72366096Y-98893381D02*
X71889905Y-98893381D01*
X71842286Y-99369571D01*
X71889905Y-99321952D01*
X71985143Y-99274333D01*
X72223239Y-99274333D01*
X72318477Y-99321952D01*
X72366096Y-99369571D01*
X72413715Y-99464810D01*
X72413715Y-99702905D01*
X72366096Y-99798143D01*
X72318477Y-99845762D01*
X72223239Y-99893381D01*
X71985143Y-99893381D01*
X71889905Y-99845762D01*
X71842286Y-99798143D01*
X68230762Y-98337619D02*
X68135524Y-98290000D01*
X68040286Y-98194762D01*
X67897429Y-98051905D01*
X67802190Y-98004286D01*
X67706952Y-98004286D01*
X67754571Y-98242381D02*
X67659333Y-98194762D01*
X67564095Y-98099524D01*
X67516476Y-97909048D01*
X67516476Y-97575714D01*
X67564095Y-97385238D01*
X67659333Y-97290000D01*
X67754571Y-97242381D01*
X67945048Y-97242381D01*
X68040286Y-97290000D01*
X68135524Y-97385238D01*
X68183143Y-97575714D01*
X68183143Y-97909048D01*
X68135524Y-98099524D01*
X68040286Y-98194762D01*
X67945048Y-98242381D01*
X67754571Y-98242381D01*
X69135524Y-98242381D02*
X68564095Y-98242381D01*
X68849809Y-98242381D02*
X68849809Y-97242381D01*
X68754571Y-97385238D01*
X68659333Y-97480476D01*
X68564095Y-97528095D01*
X86701334Y-89479381D02*
X86368000Y-89003190D01*
X86129905Y-89479381D02*
X86129905Y-88479381D01*
X86510858Y-88479381D01*
X86606096Y-88527000D01*
X86653715Y-88574619D01*
X86701334Y-88669857D01*
X86701334Y-88812714D01*
X86653715Y-88907952D01*
X86606096Y-88955571D01*
X86510858Y-89003190D01*
X86129905Y-89003190D01*
X87653715Y-89479381D02*
X87082286Y-89479381D01*
X87368000Y-89479381D02*
X87368000Y-88479381D01*
X87272762Y-88622238D01*
X87177524Y-88717476D01*
X87082286Y-88765095D01*
X83272334Y-85415381D02*
X82939000Y-84939190D01*
X82700905Y-85415381D02*
X82700905Y-84415381D01*
X83081858Y-84415381D01*
X83177096Y-84463000D01*
X83224715Y-84510619D01*
X83272334Y-84605857D01*
X83272334Y-84748714D01*
X83224715Y-84843952D01*
X83177096Y-84891571D01*
X83081858Y-84939190D01*
X82700905Y-84939190D01*
X83653286Y-84510619D02*
X83700905Y-84463000D01*
X83796143Y-84415381D01*
X84034239Y-84415381D01*
X84129477Y-84463000D01*
X84177096Y-84510619D01*
X84224715Y-84605857D01*
X84224715Y-84701095D01*
X84177096Y-84843952D01*
X83605667Y-85415381D01*
X84224715Y-85415381D01*
X39139834Y-79446381D02*
X38806500Y-78970190D01*
X38568405Y-79446381D02*
X38568405Y-78446381D01*
X38949358Y-78446381D01*
X39044596Y-78494000D01*
X39092215Y-78541619D01*
X39139834Y-78636857D01*
X39139834Y-78779714D01*
X39092215Y-78874952D01*
X39044596Y-78922571D01*
X38949358Y-78970190D01*
X38568405Y-78970190D01*
X39473167Y-78446381D02*
X40092215Y-78446381D01*
X39758881Y-78827333D01*
X39901739Y-78827333D01*
X39996977Y-78874952D01*
X40044596Y-78922571D01*
X40092215Y-79017810D01*
X40092215Y-79255905D01*
X40044596Y-79351143D01*
X39996977Y-79398762D01*
X39901739Y-79446381D01*
X39616024Y-79446381D01*
X39520786Y-79398762D01*
X39473167Y-79351143D01*
X49982381Y-79795666D02*
X49506190Y-80129000D01*
X49982381Y-80367095D02*
X48982381Y-80367095D01*
X48982381Y-79986142D01*
X49030000Y-79890904D01*
X49077619Y-79843285D01*
X49172857Y-79795666D01*
X49315714Y-79795666D01*
X49410952Y-79843285D01*
X49458571Y-79890904D01*
X49506190Y-79986142D01*
X49506190Y-80367095D01*
X49315714Y-78938523D02*
X49982381Y-78938523D01*
X48934762Y-79176619D02*
X49649048Y-79414714D01*
X49649048Y-78795666D01*
X51760381Y-81192666D02*
X51284190Y-81526000D01*
X51760381Y-81764095D02*
X50760381Y-81764095D01*
X50760381Y-81383142D01*
X50808000Y-81287904D01*
X50855619Y-81240285D01*
X50950857Y-81192666D01*
X51093714Y-81192666D01*
X51188952Y-81240285D01*
X51236571Y-81287904D01*
X51284190Y-81383142D01*
X51284190Y-81764095D01*
X50760381Y-80287904D02*
X50760381Y-80764095D01*
X51236571Y-80811714D01*
X51188952Y-80764095D01*
X51141333Y-80668857D01*
X51141333Y-80430761D01*
X51188952Y-80335523D01*
X51236571Y-80287904D01*
X51331810Y-80240285D01*
X51569905Y-80240285D01*
X51665143Y-80287904D01*
X51712762Y-80335523D01*
X51760381Y-80430761D01*
X51760381Y-80668857D01*
X51712762Y-80764095D01*
X51665143Y-80811714D01*
X40584381Y-82970666D02*
X40108190Y-83304000D01*
X40584381Y-83542095D02*
X39584381Y-83542095D01*
X39584381Y-83161142D01*
X39632000Y-83065904D01*
X39679619Y-83018285D01*
X39774857Y-82970666D01*
X39917714Y-82970666D01*
X40012952Y-83018285D01*
X40060571Y-83065904D01*
X40108190Y-83161142D01*
X40108190Y-83542095D01*
X39584381Y-82113523D02*
X39584381Y-82304000D01*
X39632000Y-82399238D01*
X39679619Y-82446857D01*
X39822476Y-82542095D01*
X40012952Y-82589714D01*
X40393905Y-82589714D01*
X40489143Y-82542095D01*
X40536762Y-82494476D01*
X40584381Y-82399238D01*
X40584381Y-82208761D01*
X40536762Y-82113523D01*
X40489143Y-82065904D01*
X40393905Y-82018285D01*
X40155810Y-82018285D01*
X40060571Y-82065904D01*
X40012952Y-82113523D01*
X39965333Y-82208761D01*
X39965333Y-82399238D01*
X40012952Y-82494476D01*
X40060571Y-82542095D01*
X40155810Y-82589714D01*
X80081381Y-67984666D02*
X79605190Y-68318000D01*
X80081381Y-68556095D02*
X79081381Y-68556095D01*
X79081381Y-68175142D01*
X79129000Y-68079904D01*
X79176619Y-68032285D01*
X79271857Y-67984666D01*
X79414714Y-67984666D01*
X79509952Y-68032285D01*
X79557571Y-68079904D01*
X79605190Y-68175142D01*
X79605190Y-68556095D01*
X79081381Y-67651333D02*
X79081381Y-66984666D01*
X80081381Y-67413238D01*
X85796381Y-67730666D02*
X85320190Y-68064000D01*
X85796381Y-68302095D02*
X84796381Y-68302095D01*
X84796381Y-67921142D01*
X84844000Y-67825904D01*
X84891619Y-67778285D01*
X84986857Y-67730666D01*
X85129714Y-67730666D01*
X85224952Y-67778285D01*
X85272571Y-67825904D01*
X85320190Y-67921142D01*
X85320190Y-68302095D01*
X85224952Y-67159238D02*
X85177333Y-67254476D01*
X85129714Y-67302095D01*
X85034476Y-67349714D01*
X84986857Y-67349714D01*
X84891619Y-67302095D01*
X84844000Y-67254476D01*
X84796381Y-67159238D01*
X84796381Y-66968761D01*
X84844000Y-66873523D01*
X84891619Y-66825904D01*
X84986857Y-66778285D01*
X85034476Y-66778285D01*
X85129714Y-66825904D01*
X85177333Y-66873523D01*
X85224952Y-66968761D01*
X85224952Y-67159238D01*
X85272571Y-67254476D01*
X85320190Y-67302095D01*
X85415429Y-67349714D01*
X85605905Y-67349714D01*
X85701143Y-67302095D01*
X85748762Y-67254476D01*
X85796381Y-67159238D01*
X85796381Y-66968761D01*
X85748762Y-66873523D01*
X85701143Y-66825904D01*
X85605905Y-66778285D01*
X85415429Y-66778285D01*
X85320190Y-66825904D01*
X85272571Y-66873523D01*
X85224952Y-66968761D01*
X87574381Y-67730666D02*
X87098190Y-68064000D01*
X87574381Y-68302095D02*
X86574381Y-68302095D01*
X86574381Y-67921142D01*
X86622000Y-67825904D01*
X86669619Y-67778285D01*
X86764857Y-67730666D01*
X86907714Y-67730666D01*
X87002952Y-67778285D01*
X87050571Y-67825904D01*
X87098190Y-67921142D01*
X87098190Y-68302095D01*
X87574381Y-67254476D02*
X87574381Y-67064000D01*
X87526762Y-66968761D01*
X87479143Y-66921142D01*
X87336286Y-66825904D01*
X87145810Y-66778285D01*
X86764857Y-66778285D01*
X86669619Y-66825904D01*
X86622000Y-66873523D01*
X86574381Y-66968761D01*
X86574381Y-67159238D01*
X86622000Y-67254476D01*
X86669619Y-67302095D01*
X86764857Y-67349714D01*
X87002952Y-67349714D01*
X87098190Y-67302095D01*
X87145810Y-67254476D01*
X87193429Y-67159238D01*
X87193429Y-66968761D01*
X87145810Y-66873523D01*
X87098190Y-66825904D01*
X87002952Y-66778285D01*
X65778143Y-91662381D02*
X65444809Y-91186190D01*
X65206714Y-91662381D02*
X65206714Y-90662381D01*
X65587667Y-90662381D01*
X65682905Y-90710000D01*
X65730524Y-90757619D01*
X65778143Y-90852857D01*
X65778143Y-90995714D01*
X65730524Y-91090952D01*
X65682905Y-91138571D01*
X65587667Y-91186190D01*
X65206714Y-91186190D01*
X66730524Y-91662381D02*
X66159095Y-91662381D01*
X66444809Y-91662381D02*
X66444809Y-90662381D01*
X66349571Y-90805238D01*
X66254333Y-90900476D01*
X66159095Y-90948095D01*
X67349571Y-90662381D02*
X67444810Y-90662381D01*
X67540048Y-90710000D01*
X67587667Y-90757619D01*
X67635286Y-90852857D01*
X67682905Y-91043333D01*
X67682905Y-91281429D01*
X67635286Y-91471905D01*
X67587667Y-91567143D01*
X67540048Y-91614762D01*
X67444810Y-91662381D01*
X67349571Y-91662381D01*
X67254333Y-91614762D01*
X67206714Y-91567143D01*
X67159095Y-91471905D01*
X67111476Y-91281429D01*
X67111476Y-91043333D01*
X67159095Y-90852857D01*
X67206714Y-90757619D01*
X67254333Y-90710000D01*
X67349571Y-90662381D01*
X64127143Y-101671381D02*
X63793809Y-101195190D01*
X63555714Y-101671381D02*
X63555714Y-100671381D01*
X63936667Y-100671381D01*
X64031905Y-100719000D01*
X64079524Y-100766619D01*
X64127143Y-100861857D01*
X64127143Y-101004714D01*
X64079524Y-101099952D01*
X64031905Y-101147571D01*
X63936667Y-101195190D01*
X63555714Y-101195190D01*
X65079524Y-101671381D02*
X64508095Y-101671381D01*
X64793809Y-101671381D02*
X64793809Y-100671381D01*
X64698571Y-100814238D01*
X64603333Y-100909476D01*
X64508095Y-100957095D01*
X65460476Y-100766619D02*
X65508095Y-100719000D01*
X65603333Y-100671381D01*
X65841429Y-100671381D01*
X65936667Y-100719000D01*
X65984286Y-100766619D01*
X66031905Y-100861857D01*
X66031905Y-100957095D01*
X65984286Y-101099952D01*
X65412857Y-101671381D01*
X66031905Y-101671381D01*
X62809381Y-93479857D02*
X62333190Y-93813191D01*
X62809381Y-94051286D02*
X61809381Y-94051286D01*
X61809381Y-93670333D01*
X61857000Y-93575095D01*
X61904619Y-93527476D01*
X61999857Y-93479857D01*
X62142714Y-93479857D01*
X62237952Y-93527476D01*
X62285571Y-93575095D01*
X62333190Y-93670333D01*
X62333190Y-94051286D01*
X62809381Y-92527476D02*
X62809381Y-93098905D01*
X62809381Y-92813191D02*
X61809381Y-92813191D01*
X61952238Y-92908429D01*
X62047476Y-93003667D01*
X62095095Y-93098905D01*
X62142714Y-91670333D02*
X62809381Y-91670333D01*
X61761762Y-91908429D02*
X62476048Y-92146524D01*
X62476048Y-91527476D01*
X64333381Y-93479857D02*
X63857190Y-93813191D01*
X64333381Y-94051286D02*
X63333381Y-94051286D01*
X63333381Y-93670333D01*
X63381000Y-93575095D01*
X63428619Y-93527476D01*
X63523857Y-93479857D01*
X63666714Y-93479857D01*
X63761952Y-93527476D01*
X63809571Y-93575095D01*
X63857190Y-93670333D01*
X63857190Y-94051286D01*
X64333381Y-92527476D02*
X64333381Y-93098905D01*
X64333381Y-92813191D02*
X63333381Y-92813191D01*
X63476238Y-92908429D01*
X63571476Y-93003667D01*
X63619095Y-93098905D01*
X63333381Y-91622714D02*
X63333381Y-92098905D01*
X63809571Y-92146524D01*
X63761952Y-92098905D01*
X63714333Y-92003667D01*
X63714333Y-91765571D01*
X63761952Y-91670333D01*
X63809571Y-91622714D01*
X63904810Y-91575095D01*
X64142905Y-91575095D01*
X64238143Y-91622714D01*
X64285762Y-91670333D01*
X64333381Y-91765571D01*
X64333381Y-92003667D01*
X64285762Y-92098905D01*
X64238143Y-92146524D01*
X57602381Y-93352857D02*
X57126190Y-93686191D01*
X57602381Y-93924286D02*
X56602381Y-93924286D01*
X56602381Y-93543333D01*
X56650000Y-93448095D01*
X56697619Y-93400476D01*
X56792857Y-93352857D01*
X56935714Y-93352857D01*
X57030952Y-93400476D01*
X57078571Y-93448095D01*
X57126190Y-93543333D01*
X57126190Y-93924286D01*
X57602381Y-92400476D02*
X57602381Y-92971905D01*
X57602381Y-92686191D02*
X56602381Y-92686191D01*
X56745238Y-92781429D01*
X56840476Y-92876667D01*
X56888095Y-92971905D01*
X56602381Y-92067143D02*
X56602381Y-91400476D01*
X57602381Y-91829048D01*
X55824381Y-93352857D02*
X55348190Y-93686191D01*
X55824381Y-93924286D02*
X54824381Y-93924286D01*
X54824381Y-93543333D01*
X54872000Y-93448095D01*
X54919619Y-93400476D01*
X55014857Y-93352857D01*
X55157714Y-93352857D01*
X55252952Y-93400476D01*
X55300571Y-93448095D01*
X55348190Y-93543333D01*
X55348190Y-93924286D01*
X55824381Y-92400476D02*
X55824381Y-92971905D01*
X55824381Y-92686191D02*
X54824381Y-92686191D01*
X54967238Y-92781429D01*
X55062476Y-92876667D01*
X55110095Y-92971905D01*
X55252952Y-91829048D02*
X55205333Y-91924286D01*
X55157714Y-91971905D01*
X55062476Y-92019524D01*
X55014857Y-92019524D01*
X54919619Y-91971905D01*
X54872000Y-91924286D01*
X54824381Y-91829048D01*
X54824381Y-91638571D01*
X54872000Y-91543333D01*
X54919619Y-91495714D01*
X55014857Y-91448095D01*
X55062476Y-91448095D01*
X55157714Y-91495714D01*
X55205333Y-91543333D01*
X55252952Y-91638571D01*
X55252952Y-91829048D01*
X55300571Y-91924286D01*
X55348190Y-91971905D01*
X55443429Y-92019524D01*
X55633905Y-92019524D01*
X55729143Y-91971905D01*
X55776762Y-91924286D01*
X55824381Y-91829048D01*
X55824381Y-91638571D01*
X55776762Y-91543333D01*
X55729143Y-91495714D01*
X55633905Y-91448095D01*
X55443429Y-91448095D01*
X55348190Y-91495714D01*
X55300571Y-91543333D01*
X55252952Y-91638571D01*
X89344667Y-83462762D02*
X89487524Y-83510381D01*
X89725620Y-83510381D01*
X89820858Y-83462762D01*
X89868477Y-83415143D01*
X89916096Y-83319905D01*
X89916096Y-83224667D01*
X89868477Y-83129429D01*
X89820858Y-83081810D01*
X89725620Y-83034190D01*
X89535143Y-82986571D01*
X89439905Y-82938952D01*
X89392286Y-82891333D01*
X89344667Y-82796095D01*
X89344667Y-82700857D01*
X89392286Y-82605619D01*
X89439905Y-82558000D01*
X89535143Y-82510381D01*
X89773239Y-82510381D01*
X89916096Y-82558000D01*
X90249429Y-82510381D02*
X90487524Y-83510381D01*
X90678001Y-82796095D01*
X90868477Y-83510381D01*
X91106572Y-82510381D01*
X92011334Y-83510381D02*
X91439905Y-83510381D01*
X91725619Y-83510381D02*
X91725619Y-82510381D01*
X91630381Y-82653238D01*
X91535143Y-82748476D01*
X91439905Y-82796095D01*
X58928095Y-71080381D02*
X58928095Y-71889905D01*
X58975714Y-71985143D01*
X59023333Y-72032762D01*
X59118571Y-72080381D01*
X59309048Y-72080381D01*
X59404286Y-72032762D01*
X59451905Y-71985143D01*
X59499524Y-71889905D01*
X59499524Y-71080381D01*
X59928095Y-71175619D02*
X59975714Y-71128000D01*
X60070952Y-71080381D01*
X60309048Y-71080381D01*
X60404286Y-71128000D01*
X60451905Y-71175619D01*
X60499524Y-71270857D01*
X60499524Y-71366095D01*
X60451905Y-71508952D01*
X59880476Y-72080381D01*
X60499524Y-72080381D01*
X58182381Y-59181905D02*
X58991905Y-59181905D01*
X59087143Y-59134286D01*
X59134762Y-59086667D01*
X59182381Y-58991429D01*
X59182381Y-58800952D01*
X59134762Y-58705714D01*
X59087143Y-58658095D01*
X58991905Y-58610476D01*
X58182381Y-58610476D01*
X58515714Y-57705714D02*
X59182381Y-57705714D01*
X58134762Y-57943810D02*
X58849048Y-58181905D01*
X58849048Y-57562857D01*
X38638381Y-60410905D02*
X39447905Y-60410905D01*
X39543143Y-60363286D01*
X39590762Y-60315667D01*
X39638381Y-60220429D01*
X39638381Y-60029952D01*
X39590762Y-59934714D01*
X39543143Y-59887095D01*
X39447905Y-59839476D01*
X38638381Y-59839476D01*
X38638381Y-58887095D02*
X38638381Y-59363286D01*
X39114571Y-59410905D01*
X39066952Y-59363286D01*
X39019333Y-59268048D01*
X39019333Y-59029952D01*
X39066952Y-58934714D01*
X39114571Y-58887095D01*
X39209810Y-58839476D01*
X39447905Y-58839476D01*
X39543143Y-58887095D01*
X39590762Y-58934714D01*
X39638381Y-59029952D01*
X39638381Y-59268048D01*
X39590762Y-59363286D01*
X39543143Y-59410905D01*
X59563095Y-97369381D02*
X59563095Y-98178905D01*
X59610714Y-98274143D01*
X59658333Y-98321762D01*
X59753571Y-98369381D01*
X59944048Y-98369381D01*
X60039286Y-98321762D01*
X60086905Y-98274143D01*
X60134524Y-98178905D01*
X60134524Y-97369381D01*
X61039286Y-97369381D02*
X60848809Y-97369381D01*
X60753571Y-97417000D01*
X60705952Y-97464619D01*
X60610714Y-97607476D01*
X60563095Y-97797952D01*
X60563095Y-98178905D01*
X60610714Y-98274143D01*
X60658333Y-98321762D01*
X60753571Y-98369381D01*
X60944048Y-98369381D01*
X61039286Y-98321762D01*
X61086905Y-98274143D01*
X61134524Y-98178905D01*
X61134524Y-97940810D01*
X61086905Y-97845571D01*
X61039286Y-97797952D01*
X60944048Y-97750333D01*
X60753571Y-97750333D01*
X60658333Y-97797952D01*
X60610714Y-97845571D01*
X60563095Y-97940810D01*
X75906381Y-114299905D02*
X76715905Y-114299905D01*
X76811143Y-114252286D01*
X76858762Y-114204667D01*
X76906381Y-114109429D01*
X76906381Y-113918952D01*
X76858762Y-113823714D01*
X76811143Y-113776095D01*
X76715905Y-113728476D01*
X75906381Y-113728476D01*
X75906381Y-113347524D02*
X75906381Y-112680857D01*
X76906381Y-113109429D01*
X74255381Y-105790905D02*
X75064905Y-105790905D01*
X75160143Y-105743286D01*
X75207762Y-105695667D01*
X75255381Y-105600429D01*
X75255381Y-105409952D01*
X75207762Y-105314714D01*
X75160143Y-105267095D01*
X75064905Y-105219476D01*
X74255381Y-105219476D01*
X74683952Y-104600429D02*
X74636333Y-104695667D01*
X74588714Y-104743286D01*
X74493476Y-104790905D01*
X74445857Y-104790905D01*
X74350619Y-104743286D01*
X74303000Y-104695667D01*
X74255381Y-104600429D01*
X74255381Y-104409952D01*
X74303000Y-104314714D01*
X74350619Y-104267095D01*
X74445857Y-104219476D01*
X74493476Y-104219476D01*
X74588714Y-104267095D01*
X74636333Y-104314714D01*
X74683952Y-104409952D01*
X74683952Y-104600429D01*
X74731571Y-104695667D01*
X74779190Y-104743286D01*
X74874429Y-104790905D01*
X75064905Y-104790905D01*
X75160143Y-104743286D01*
X75207762Y-104695667D01*
X75255381Y-104600429D01*
X75255381Y-104409952D01*
X75207762Y-104314714D01*
X75160143Y-104267095D01*
X75064905Y-104219476D01*
X74874429Y-104219476D01*
X74779190Y-104267095D01*
X74731571Y-104314714D01*
X74683952Y-104409952D01*
X64770095Y-129912381D02*
X64770095Y-130721905D01*
X64817714Y-130817143D01*
X64865333Y-130864762D01*
X64960571Y-130912381D01*
X65151048Y-130912381D01*
X65246286Y-130864762D01*
X65293905Y-130817143D01*
X65341524Y-130721905D01*
X65341524Y-129912381D01*
X65865333Y-130912381D02*
X66055809Y-130912381D01*
X66151048Y-130864762D01*
X66198667Y-130817143D01*
X66293905Y-130674286D01*
X66341524Y-130483810D01*
X66341524Y-130102857D01*
X66293905Y-130007619D01*
X66246286Y-129960000D01*
X66151048Y-129912381D01*
X65960571Y-129912381D01*
X65865333Y-129960000D01*
X65817714Y-130007619D01*
X65770095Y-130102857D01*
X65770095Y-130340952D01*
X65817714Y-130436190D01*
X65865333Y-130483810D01*
X65960571Y-130531429D01*
X66151048Y-130531429D01*
X66246286Y-130483810D01*
X66293905Y-130436190D01*
X66341524Y-130340952D01*
X71913809Y-78563790D02*
X71913809Y-79039981D01*
X71580476Y-78039981D02*
X71913809Y-78563790D01*
X72247143Y-78039981D01*
X73104286Y-79039981D02*
X72532857Y-79039981D01*
X72818571Y-79039981D02*
X72818571Y-78039981D01*
X72723333Y-78182838D01*
X72628095Y-78278076D01*
X72532857Y-78325695D01*
X70966381Y-53339905D02*
X71775905Y-53339905D01*
X71871143Y-53292286D01*
X71918762Y-53244667D01*
X71966381Y-53149429D01*
X71966381Y-52958952D01*
X71918762Y-52863714D01*
X71871143Y-52816095D01*
X71775905Y-52768476D01*
X70966381Y-52768476D01*
X70966381Y-52387524D02*
X70966381Y-51768476D01*
X71347333Y-52101810D01*
X71347333Y-51958952D01*
X71394952Y-51863714D01*
X71442571Y-51816095D01*
X71537810Y-51768476D01*
X71775905Y-51768476D01*
X71871143Y-51816095D01*
X71918762Y-51863714D01*
X71966381Y-51958952D01*
X71966381Y-52244667D01*
X71918762Y-52339905D01*
X71871143Y-52387524D01*
X74668143Y-107291143D02*
X74620524Y-107338762D01*
X74477667Y-107386381D01*
X74382429Y-107386381D01*
X74239571Y-107338762D01*
X74144333Y-107243524D01*
X74096714Y-107148286D01*
X74049095Y-106957810D01*
X74049095Y-106814952D01*
X74096714Y-106624476D01*
X74144333Y-106529238D01*
X74239571Y-106434000D01*
X74382429Y-106386381D01*
X74477667Y-106386381D01*
X74620524Y-106434000D01*
X74668143Y-106481619D01*
X75001476Y-106386381D02*
X75620524Y-106386381D01*
X75287190Y-106767333D01*
X75430048Y-106767333D01*
X75525286Y-106814952D01*
X75572905Y-106862571D01*
X75620524Y-106957810D01*
X75620524Y-107195905D01*
X75572905Y-107291143D01*
X75525286Y-107338762D01*
X75430048Y-107386381D01*
X75144333Y-107386381D01*
X75049095Y-107338762D01*
X75001476Y-107291143D01*
X76572905Y-107386381D02*
X76001476Y-107386381D01*
X76287190Y-107386381D02*
X76287190Y-106386381D01*
X76191952Y-106529238D01*
X76096714Y-106624476D01*
X76001476Y-106672095D01*
X44394381Y-99702857D02*
X43918190Y-100036191D01*
X44394381Y-100274286D02*
X43394381Y-100274286D01*
X43394381Y-99893333D01*
X43442000Y-99798095D01*
X43489619Y-99750476D01*
X43584857Y-99702857D01*
X43727714Y-99702857D01*
X43822952Y-99750476D01*
X43870571Y-99798095D01*
X43918190Y-99893333D01*
X43918190Y-100274286D01*
X44394381Y-98750476D02*
X44394381Y-99321905D01*
X44394381Y-99036191D02*
X43394381Y-99036191D01*
X43537238Y-99131429D01*
X43632476Y-99226667D01*
X43680095Y-99321905D01*
X44394381Y-98274286D02*
X44394381Y-98083810D01*
X44346762Y-97988571D01*
X44299143Y-97940952D01*
X44156286Y-97845714D01*
X43965810Y-97798095D01*
X43584857Y-97798095D01*
X43489619Y-97845714D01*
X43442000Y-97893333D01*
X43394381Y-97988571D01*
X43394381Y-98179048D01*
X43442000Y-98274286D01*
X43489619Y-98321905D01*
X43584857Y-98369524D01*
X43822952Y-98369524D01*
X43918190Y-98321905D01*
X43965810Y-98274286D01*
X44013429Y-98179048D01*
X44013429Y-97988571D01*
X43965810Y-97893333D01*
X43918190Y-97845714D01*
X43822952Y-97798095D01*
X46172381Y-99702857D02*
X45696190Y-100036191D01*
X46172381Y-100274286D02*
X45172381Y-100274286D01*
X45172381Y-99893333D01*
X45220000Y-99798095D01*
X45267619Y-99750476D01*
X45362857Y-99702857D01*
X45505714Y-99702857D01*
X45600952Y-99750476D01*
X45648571Y-99798095D01*
X45696190Y-99893333D01*
X45696190Y-100274286D01*
X45267619Y-99321905D02*
X45220000Y-99274286D01*
X45172381Y-99179048D01*
X45172381Y-98940952D01*
X45220000Y-98845714D01*
X45267619Y-98798095D01*
X45362857Y-98750476D01*
X45458095Y-98750476D01*
X45600952Y-98798095D01*
X46172381Y-99369524D01*
X46172381Y-98750476D01*
X45172381Y-98131429D02*
X45172381Y-98036190D01*
X45220000Y-97940952D01*
X45267619Y-97893333D01*
X45362857Y-97845714D01*
X45553333Y-97798095D01*
X45791429Y-97798095D01*
X45981905Y-97845714D01*
X46077143Y-97893333D01*
X46124762Y-97940952D01*
X46172381Y-98036190D01*
X46172381Y-98131429D01*
X46124762Y-98226667D01*
X46077143Y-98274286D01*
X45981905Y-98321905D01*
X45791429Y-98369524D01*
X45553333Y-98369524D01*
X45362857Y-98321905D01*
X45267619Y-98274286D01*
X45220000Y-98226667D01*
X45172381Y-98131429D01*
X52268381Y-92432095D02*
X51268381Y-92432095D01*
X51268381Y-92194000D01*
X51316000Y-92051142D01*
X51411238Y-91955904D01*
X51506476Y-91908285D01*
X51696952Y-91860666D01*
X51839810Y-91860666D01*
X52030286Y-91908285D01*
X52125524Y-91955904D01*
X52220762Y-92051142D01*
X52268381Y-92194000D01*
X52268381Y-92432095D01*
X51363619Y-91479714D02*
X51316000Y-91432095D01*
X51268381Y-91336857D01*
X51268381Y-91098761D01*
X51316000Y-91003523D01*
X51363619Y-90955904D01*
X51458857Y-90908285D01*
X51554095Y-90908285D01*
X51696952Y-90955904D01*
X52268381Y-91527333D01*
X52268381Y-90908285D01*
X51506381Y-95257905D02*
X50506381Y-95257905D01*
X51506381Y-94686476D02*
X50934952Y-95115048D01*
X50506381Y-94686476D02*
X51077810Y-95257905D01*
X51474667Y-88630095D02*
X51474667Y-88153904D01*
X51760381Y-88725333D02*
X50760381Y-88392000D01*
X51760381Y-88058666D01*
X45489905Y-106116381D02*
X45489905Y-105116381D01*
X45728000Y-105116381D01*
X45870858Y-105164000D01*
X45966096Y-105259238D01*
X46013715Y-105354476D01*
X46061334Y-105544952D01*
X46061334Y-105687810D01*
X46013715Y-105878286D01*
X45966096Y-105973524D01*
X45870858Y-106068762D01*
X45728000Y-106116381D01*
X45489905Y-106116381D01*
X46394667Y-105116381D02*
X47013715Y-105116381D01*
X46680381Y-105497333D01*
X46823239Y-105497333D01*
X46918477Y-105544952D01*
X46966096Y-105592571D01*
X47013715Y-105687810D01*
X47013715Y-105925905D01*
X46966096Y-106021143D01*
X46918477Y-106068762D01*
X46823239Y-106116381D01*
X46537524Y-106116381D01*
X46442286Y-106068762D01*
X46394667Y-106021143D01*
X49268095Y-101798381D02*
X49268095Y-100798381D01*
X49839524Y-101798381D02*
X49410952Y-101226952D01*
X49839524Y-100798381D02*
X49268095Y-101369810D01*
X42941905Y-101258667D02*
X43418096Y-101258667D01*
X42846667Y-101544381D02*
X43180000Y-100544381D01*
X43513334Y-101544381D01*
X85875905Y-107640381D02*
X85875905Y-106640381D01*
X86114000Y-106640381D01*
X86256858Y-106688000D01*
X86352096Y-106783238D01*
X86399715Y-106878476D01*
X86447334Y-107068952D01*
X86447334Y-107211810D01*
X86399715Y-107402286D01*
X86352096Y-107497524D01*
X86256858Y-107592762D01*
X86114000Y-107640381D01*
X85875905Y-107640381D01*
X87304477Y-106973714D02*
X87304477Y-107640381D01*
X87066381Y-106592762D02*
X86828286Y-107307048D01*
X87447334Y-107307048D01*
X89098381Y-105671905D02*
X88098381Y-105671905D01*
X89098381Y-105100476D02*
X88526952Y-105529048D01*
X88098381Y-105100476D02*
X88669810Y-105671905D01*
X88812667Y-99298095D02*
X88812667Y-98821904D01*
X89098381Y-99393333D02*
X88098381Y-99060000D01*
X89098381Y-98726666D01*
X45315143Y-119260857D02*
X45362762Y-119308476D01*
X45410381Y-119451333D01*
X45410381Y-119546571D01*
X45362762Y-119689429D01*
X45267524Y-119784667D01*
X45172286Y-119832286D01*
X44981810Y-119879905D01*
X44838952Y-119879905D01*
X44648476Y-119832286D01*
X44553238Y-119784667D01*
X44458000Y-119689429D01*
X44410381Y-119546571D01*
X44410381Y-119451333D01*
X44458000Y-119308476D01*
X44505619Y-119260857D01*
X45410381Y-118308476D02*
X45410381Y-118879905D01*
X45410381Y-118594191D02*
X44410381Y-118594191D01*
X44553238Y-118689429D01*
X44648476Y-118784667D01*
X44696095Y-118879905D01*
X44410381Y-117403714D02*
X44410381Y-117879905D01*
X44886571Y-117927524D01*
X44838952Y-117879905D01*
X44791333Y-117784667D01*
X44791333Y-117546571D01*
X44838952Y-117451333D01*
X44886571Y-117403714D01*
X44981810Y-117356095D01*
X45219905Y-117356095D01*
X45315143Y-117403714D01*
X45362762Y-117451333D01*
X45410381Y-117546571D01*
X45410381Y-117784667D01*
X45362762Y-117879905D01*
X45315143Y-117927524D01*
X89098381Y-71604095D02*
X88098381Y-71604095D01*
X88098381Y-71223142D01*
X88146000Y-71127904D01*
X88193619Y-71080285D01*
X88288857Y-71032666D01*
X88431714Y-71032666D01*
X88526952Y-71080285D01*
X88574571Y-71127904D01*
X88622190Y-71223142D01*
X88622190Y-71604095D01*
X88193619Y-70651714D02*
X88146000Y-70604095D01*
X88098381Y-70508857D01*
X88098381Y-70270761D01*
X88146000Y-70175523D01*
X88193619Y-70127904D01*
X88288857Y-70080285D01*
X88384095Y-70080285D01*
X88526952Y-70127904D01*
X89098381Y-70699333D01*
X89098381Y-70080285D01*
X37361905Y-108552381D02*
X37361905Y-107552381D01*
X37742858Y-107552381D01*
X37838096Y-107600000D01*
X37885715Y-107647619D01*
X37933334Y-107742857D01*
X37933334Y-107885714D01*
X37885715Y-107980952D01*
X37838096Y-108028571D01*
X37742858Y-108076190D01*
X37361905Y-108076190D01*
X38266667Y-107552381D02*
X38885715Y-107552381D01*
X38552381Y-107933333D01*
X38695239Y-107933333D01*
X38790477Y-107980952D01*
X38838096Y-108028571D01*
X38885715Y-108123810D01*
X38885715Y-108361905D01*
X38838096Y-108457143D01*
X38790477Y-108504762D01*
X38695239Y-108552381D01*
X38409524Y-108552381D01*
X38314286Y-108504762D01*
X38266667Y-108457143D01*
X90193905Y-105354381D02*
X90193905Y-104354381D01*
X90574858Y-104354381D01*
X90670096Y-104402000D01*
X90717715Y-104449619D01*
X90765334Y-104544857D01*
X90765334Y-104687714D01*
X90717715Y-104782952D01*
X90670096Y-104830571D01*
X90574858Y-104878190D01*
X90193905Y-104878190D01*
X91622477Y-104687714D02*
X91622477Y-105354381D01*
X91384381Y-104306762D02*
X91146286Y-105021048D01*
X91765334Y-105021048D01*
X40838381Y-116054095D02*
X39838381Y-116054095D01*
X39838381Y-115673142D01*
X39886000Y-115577904D01*
X39933619Y-115530285D01*
X40028857Y-115482666D01*
X40171714Y-115482666D01*
X40266952Y-115530285D01*
X40314571Y-115577904D01*
X40362190Y-115673142D01*
X40362190Y-116054095D01*
X39838381Y-114625523D02*
X39838381Y-114816000D01*
X39886000Y-114911238D01*
X39933619Y-114958857D01*
X40076476Y-115054095D01*
X40266952Y-115101714D01*
X40647905Y-115101714D01*
X40743143Y-115054095D01*
X40790762Y-115006476D01*
X40838381Y-114911238D01*
X40838381Y-114720761D01*
X40790762Y-114625523D01*
X40743143Y-114577904D01*
X40647905Y-114530285D01*
X40409810Y-114530285D01*
X40314571Y-114577904D01*
X40266952Y-114625523D01*
X40219333Y-114720761D01*
X40219333Y-114911238D01*
X40266952Y-115006476D01*
X40314571Y-115054095D01*
X40409810Y-115101714D01*
X55717381Y-131548095D02*
X54717381Y-131548095D01*
X54717381Y-131167142D01*
X54765000Y-131071904D01*
X54812619Y-131024285D01*
X54907857Y-130976666D01*
X55050714Y-130976666D01*
X55145952Y-131024285D01*
X55193571Y-131071904D01*
X55241190Y-131167142D01*
X55241190Y-131548095D01*
X54717381Y-130643333D02*
X54717381Y-129976666D01*
X55717381Y-130405238D01*
X85562381Y-131548095D02*
X84562381Y-131548095D01*
X84562381Y-131167142D01*
X84610000Y-131071904D01*
X84657619Y-131024285D01*
X84752857Y-130976666D01*
X84895714Y-130976666D01*
X84990952Y-131024285D01*
X85038571Y-131071904D01*
X85086190Y-131167142D01*
X85086190Y-131548095D01*
X84990952Y-130405238D02*
X84943333Y-130500476D01*
X84895714Y-130548095D01*
X84800476Y-130595714D01*
X84752857Y-130595714D01*
X84657619Y-130548095D01*
X84610000Y-130500476D01*
X84562381Y-130405238D01*
X84562381Y-130214761D01*
X84610000Y-130119523D01*
X84657619Y-130071904D01*
X84752857Y-130024285D01*
X84800476Y-130024285D01*
X84895714Y-130071904D01*
X84943333Y-130119523D01*
X84990952Y-130214761D01*
X84990952Y-130405238D01*
X85038571Y-130500476D01*
X85086190Y-130548095D01*
X85181429Y-130595714D01*
X85371905Y-130595714D01*
X85467143Y-130548095D01*
X85514762Y-130500476D01*
X85562381Y-130405238D01*
X85562381Y-130214761D01*
X85514762Y-130119523D01*
X85467143Y-130071904D01*
X85371905Y-130024285D01*
X85181429Y-130024285D01*
X85086190Y-130071904D01*
X85038571Y-130119523D01*
X84990952Y-130214761D01*
X41864595Y-72191881D02*
X41864595Y-73001405D01*
X41912214Y-73096643D01*
X41959833Y-73144262D01*
X42055071Y-73191881D01*
X42245548Y-73191881D01*
X42340786Y-73144262D01*
X42388405Y-73096643D01*
X42436024Y-73001405D01*
X42436024Y-72191881D01*
X43436024Y-73191881D02*
X42864595Y-73191881D01*
X43150309Y-73191881D02*
X43150309Y-72191881D01*
X43055071Y-72334738D01*
X42959833Y-72429976D01*
X42864595Y-72477595D01*
M02*
