M48
INCH,TZ
T1C0.015
T2C0.020
T3C0.026
T4C0.030
T5C0.040
%
G90
G05
T1
X15000Y-20000
X15000Y-22000
X15000Y-25000
X15000Y-32000
X15000Y-42000
X15000Y-48000
X15200Y-30100
X15296Y-28154
X16000Y-19000
X16000Y-21000
X16000Y-23000
X16000Y-26000
X16000Y-32000
X16000Y-39000
X16000Y-42000
X16350Y-28100
X16550Y-37125
X16750Y-36150
X17000Y-20000
X17000Y-22000
X17000Y-27000
X17000Y-32000
X17000Y-33000
X17000Y-39000
X17000Y-42000
X17000Y-43000
X17000Y-48000
X17000Y-50000
X18000Y-21000
X18000Y-26000
X18000Y-32000
X18000Y-33000
X18000Y-39000
X18400Y-29400
X18550Y-38000
X19000Y-27000
X19000Y-28000
X19000Y-32000
X19000Y-33000
X19000Y-48000
X19250Y-14600
X19250Y-15050
X19250Y-15650
X19300Y-24850
X19300Y-25600
X19900Y-14600
X19900Y-15050
X19900Y-15650
X19900Y-16200
X19900Y-16850
X20000Y-26000
X20000Y-33000
X20050Y-35550
X20350Y-38000
X20400Y-24800
X20650Y-16250
X20650Y-16850
X20750Y-50250
X20950Y-29250
X20950Y-30800
X21000Y-19000
X21000Y-27000
X21000Y-28000
X21000Y-37000
X21000Y-37900
X21000Y-39400
X21000Y-40600
X21000Y-41900
X21000Y-46000
X21000Y-48000
X21500Y-24800
X21800Y-36500
X22500Y-36500
X22500Y-40300
X22500Y-40900
X22500Y-41600
X22700Y-16300
X22700Y-16850
X22700Y-17550
X22800Y-34900
X22900Y-31100
X23000Y-19000
X23000Y-22300
X23000Y-24400
X23000Y-45000
X23000Y-46000
X23000Y-48000
X23100Y-36500
X23100Y-37400
X23100Y-38500
X23450Y-15050
X23450Y-15600
X23450Y-16250
X23450Y-16850
X23450Y-17600
X23475Y-32850
X23500Y-32200
X23550Y-37900
X23554Y-39654
X23700Y-44650
X23750Y-50250
X23900Y-32400
X23900Y-33700
X23900Y-34900
X24000Y-18000
X24000Y-40100
X24200Y-31100
X24350Y-22900
X24550Y-37900
X24600Y-39100
X24650Y-44650
X24700Y-35000
X24800Y-41400
X24900Y-36700
X25000Y-32850
X25000Y-36200
X25200Y-31300
X25250Y-23450
X25300Y-39650
X25300Y-48775
X25350Y-35550
X25400Y-28800
X25500Y-34200
X25500Y-50250
X25650Y-42000
X25700Y-45800
X25700Y-47900
X25900Y-40800
X25950Y-32750
X26000Y-18000
X26000Y-24000
X26000Y-25000
X26000Y-26000
X26000Y-50250
X26050Y-32400
X26350Y-44650
X26850Y-32400
X26950Y-32750
X27000Y-19000
X27000Y-26000
X27000Y-26900
X27000Y-27900
X27300Y-44650
X27700Y-30400
X27700Y-50250
X27850Y-35000
X27950Y-42100
X27975Y-48600
X28000Y-19000
X28000Y-21000
X28000Y-26000
X28500Y-42600
X28500Y-43000
X28550Y-44650
X28550Y-45700
X29000Y-22000
X29000Y-26000
X29300Y-43000
X29750Y-50250
X29800Y-44650
X29900Y-24700
X29900Y-25100
X29900Y-26500
X29900Y-45700
X29925Y-29600
X30000Y-19000
X30000Y-23000
X30000Y-40500
X30000Y-41500
X30500Y-40000
X30500Y-41000
X30500Y-42000
X30600Y-27900
X30650Y-34950
X30700Y-24700
X31000Y-19000
X31000Y-37750
X31000Y-42000
X31244Y-45900
X31250Y-37250
X31250Y-41750
X31400Y-30500
X31500Y-31200
X31500Y-44325
X32000Y-19000
X32000Y-31200
X32300Y-29600
X32600Y-40450
X32750Y-31900
X32800Y-38750
X33000Y-23000
X33000Y-42000
X33000Y-45000
X33000Y-47000
X33000Y-49000
X33000Y-51000
X33900Y-30900
X34000Y-19000
X34000Y-22000
X34450Y-37200
X34850Y-31900
X35000Y-19000
X35000Y-21000
X35000Y-45000
X35000Y-47000
X35000Y-49000
T3
X27950Y-36400
X27950Y-36900
X27950Y-37400
X27950Y-37900
X27950Y-38400
X28450Y-36400
X28450Y-36900
X28450Y-37400
X28450Y-37900
X28450Y-38400
T4
X19000Y-42800
X21000Y-42800
T5
X15000Y-39551
X15000Y-40551
X15000Y-43400
X15000Y-44400
X15000Y-45400
X18750Y-51500
X19750Y-51500
X30500Y-51500
X31500Y-51500
X35800Y-27900
X35800Y-28900
X35800Y-29900
X35800Y-30900
X35800Y-31900
X35800Y-39370
X35800Y-40370
T2
X15007Y-34893G85X14693Y-34893
G05
X15007Y-37707G85X14693Y-37707
G05
T0
M30
